<?xml version="1.0" encoding="utf-8" standalone="no"?>
<!DOCTYPE svg PUBLIC "-//W3C//DTD SVG 1.1//EN"
  "http://www.w3.org/Graphics/SVG/1.1/DTD/svg11.dtd">
<!-- Created with matplotlib (https://matplotlib.org/) -->
<svg height="540pt" version="1.1" viewBox="0 0 540 540" width="540pt" xmlns="http://www.w3.org/2000/svg" xmlns:xlink="http://www.w3.org/1999/xlink">
 <defs>
  <style type="text/css">
*{stroke-linecap:butt;stroke-linejoin:round;}
  </style>
 </defs>
 <g id="figure_1">
  <g id="patch_1">
   <path d="M 0 540 
L 540 540 
L 540 0 
L 0 0 
z
" style="fill:#ffffff;"/>
  </g>
  <g id="axes_1">
   <g id="patch_2">
    <path d="M 68.312 230.56 
L 521.28 230.56 
L 521.28 10.8 
L 68.312 10.8 
z
" style="fill:#ffffff;"/>
   </g>
   <g id="matplotlib.axis_1">
    <g id="xtick_1">
     <g id="line2d_1">
      <path clip-path="url(#p9d57f392b0)" d="M 68.312 230.56 
L 68.312 10.8 
" style="fill:none;stroke:#b0b0b0;stroke-linecap:square;stroke-width:0.8;"/>
     </g>
     <g id="line2d_2">
      <defs>
       <path d="M 0 0 
L 0 3.5 
" id="m5a15f31dd4" style="stroke:#000000;stroke-width:0.8;"/>
      </defs>
      <g>
       <use style="stroke:#000000;stroke-width:0.8;" x="68.312" xlink:href="#m5a15f31dd4" y="230.56"/>
      </g>
     </g>
     <g id="text_1">
      <!-- 0.2 -->
      <defs>
       <path d="M 31.78125 66.40625 
Q 24.171875 66.40625 20.328125 58.90625 
Q 16.5 51.421875 16.5 36.375 
Q 16.5 21.390625 20.328125 13.890625 
Q 24.171875 6.390625 31.78125 6.390625 
Q 39.453125 6.390625 43.28125 13.890625 
Q 47.125 21.390625 47.125 36.375 
Q 47.125 51.421875 43.28125 58.90625 
Q 39.453125 66.40625 31.78125 66.40625 
z
M 31.78125 74.21875 
Q 44.046875 74.21875 50.515625 64.515625 
Q 56.984375 54.828125 56.984375 36.375 
Q 56.984375 17.96875 50.515625 8.265625 
Q 44.046875 -1.421875 31.78125 -1.421875 
Q 19.53125 -1.421875 13.0625 8.265625 
Q 6.59375 17.96875 6.59375 36.375 
Q 6.59375 54.828125 13.0625 64.515625 
Q 19.53125 74.21875 31.78125 74.21875 
z
" id="DejaVuSans-48"/>
       <path d="M 10.6875 12.40625 
L 21 12.40625 
L 21 0 
L 10.6875 0 
z
" id="DejaVuSans-46"/>
       <path d="M 19.1875 8.296875 
L 53.609375 8.296875 
L 53.609375 0 
L 7.328125 0 
L 7.328125 8.296875 
Q 12.9375 14.109375 22.625 23.890625 
Q 32.328125 33.6875 34.8125 36.53125 
Q 39.546875 41.84375 41.421875 45.53125 
Q 43.3125 49.21875 43.3125 52.78125 
Q 43.3125 58.59375 39.234375 62.25 
Q 35.15625 65.921875 28.609375 65.921875 
Q 23.96875 65.921875 18.8125 64.3125 
Q 13.671875 62.703125 7.8125 59.421875 
L 7.8125 69.390625 
Q 13.765625 71.78125 18.9375 73 
Q 24.125 74.21875 28.421875 74.21875 
Q 39.75 74.21875 46.484375 68.546875 
Q 53.21875 62.890625 53.21875 53.421875 
Q 53.21875 48.921875 51.53125 44.890625 
Q 49.859375 40.875 45.40625 35.40625 
Q 44.1875 33.984375 37.640625 27.21875 
Q 31.109375 20.453125 19.1875 8.296875 
z
" id="DejaVuSans-50"/>
      </defs>
      <g transform="translate(60.360438 245.158437)scale(0.1 -0.1)">
       <use xlink:href="#DejaVuSans-48"/>
       <use x="63.623047" xlink:href="#DejaVuSans-46"/>
       <use x="95.410156" xlink:href="#DejaVuSans-50"/>
      </g>
     </g>
    </g>
    <g id="xtick_2">
     <g id="line2d_3">
      <path clip-path="url(#p9d57f392b0)" d="M 124.933 230.56 
L 124.933 10.8 
" style="fill:none;stroke:#b0b0b0;stroke-linecap:square;stroke-width:0.8;"/>
     </g>
     <g id="line2d_4">
      <g>
       <use style="stroke:#000000;stroke-width:0.8;" x="124.933" xlink:href="#m5a15f31dd4" y="230.56"/>
      </g>
     </g>
     <g id="text_2">
      <!-- 0.3 -->
      <defs>
       <path d="M 40.578125 39.3125 
Q 47.65625 37.796875 51.625 33 
Q 55.609375 28.21875 55.609375 21.1875 
Q 55.609375 10.40625 48.1875 4.484375 
Q 40.765625 -1.421875 27.09375 -1.421875 
Q 22.515625 -1.421875 17.65625 -0.515625 
Q 12.796875 0.390625 7.625 2.203125 
L 7.625 11.71875 
Q 11.71875 9.328125 16.59375 8.109375 
Q 21.484375 6.890625 26.8125 6.890625 
Q 36.078125 6.890625 40.9375 10.546875 
Q 45.796875 14.203125 45.796875 21.1875 
Q 45.796875 27.640625 41.28125 31.265625 
Q 36.765625 34.90625 28.71875 34.90625 
L 20.21875 34.90625 
L 20.21875 43.015625 
L 29.109375 43.015625 
Q 36.375 43.015625 40.234375 45.921875 
Q 44.09375 48.828125 44.09375 54.296875 
Q 44.09375 59.90625 40.109375 62.90625 
Q 36.140625 65.921875 28.71875 65.921875 
Q 24.65625 65.921875 20.015625 65.03125 
Q 15.375 64.15625 9.8125 62.3125 
L 9.8125 71.09375 
Q 15.4375 72.65625 20.34375 73.4375 
Q 25.25 74.21875 29.59375 74.21875 
Q 40.828125 74.21875 47.359375 69.109375 
Q 53.90625 64.015625 53.90625 55.328125 
Q 53.90625 49.265625 50.4375 45.09375 
Q 46.96875 40.921875 40.578125 39.3125 
z
" id="DejaVuSans-51"/>
      </defs>
      <g transform="translate(116.981438 245.158437)scale(0.1 -0.1)">
       <use xlink:href="#DejaVuSans-48"/>
       <use x="63.623047" xlink:href="#DejaVuSans-46"/>
       <use x="95.410156" xlink:href="#DejaVuSans-51"/>
      </g>
     </g>
    </g>
    <g id="xtick_3">
     <g id="line2d_5">
      <path clip-path="url(#p9d57f392b0)" d="M 181.554 230.56 
L 181.554 10.8 
" style="fill:none;stroke:#b0b0b0;stroke-linecap:square;stroke-width:0.8;"/>
     </g>
     <g id="line2d_6">
      <g>
       <use style="stroke:#000000;stroke-width:0.8;" x="181.554" xlink:href="#m5a15f31dd4" y="230.56"/>
      </g>
     </g>
     <g id="text_3">
      <!-- 0.4 -->
      <defs>
       <path d="M 37.796875 64.3125 
L 12.890625 25.390625 
L 37.796875 25.390625 
z
M 35.203125 72.90625 
L 47.609375 72.90625 
L 47.609375 25.390625 
L 58.015625 25.390625 
L 58.015625 17.1875 
L 47.609375 17.1875 
L 47.609375 0 
L 37.796875 0 
L 37.796875 17.1875 
L 4.890625 17.1875 
L 4.890625 26.703125 
z
" id="DejaVuSans-52"/>
      </defs>
      <g transform="translate(173.602438 245.158437)scale(0.1 -0.1)">
       <use xlink:href="#DejaVuSans-48"/>
       <use x="63.623047" xlink:href="#DejaVuSans-46"/>
       <use x="95.410156" xlink:href="#DejaVuSans-52"/>
      </g>
     </g>
    </g>
    <g id="xtick_4">
     <g id="line2d_7">
      <path clip-path="url(#p9d57f392b0)" d="M 238.175 230.56 
L 238.175 10.8 
" style="fill:none;stroke:#b0b0b0;stroke-linecap:square;stroke-width:0.8;"/>
     </g>
     <g id="line2d_8">
      <g>
       <use style="stroke:#000000;stroke-width:0.8;" x="238.175" xlink:href="#m5a15f31dd4" y="230.56"/>
      </g>
     </g>
     <g id="text_4">
      <!-- 0.5 -->
      <defs>
       <path d="M 10.796875 72.90625 
L 49.515625 72.90625 
L 49.515625 64.59375 
L 19.828125 64.59375 
L 19.828125 46.734375 
Q 21.96875 47.46875 24.109375 47.828125 
Q 26.265625 48.1875 28.421875 48.1875 
Q 40.625 48.1875 47.75 41.5 
Q 54.890625 34.8125 54.890625 23.390625 
Q 54.890625 11.625 47.5625 5.09375 
Q 40.234375 -1.421875 26.90625 -1.421875 
Q 22.3125 -1.421875 17.546875 -0.640625 
Q 12.796875 0.140625 7.71875 1.703125 
L 7.71875 11.625 
Q 12.109375 9.234375 16.796875 8.0625 
Q 21.484375 6.890625 26.703125 6.890625 
Q 35.15625 6.890625 40.078125 11.328125 
Q 45.015625 15.765625 45.015625 23.390625 
Q 45.015625 31 40.078125 35.4375 
Q 35.15625 39.890625 26.703125 39.890625 
Q 22.75 39.890625 18.8125 39.015625 
Q 14.890625 38.140625 10.796875 36.28125 
z
" id="DejaVuSans-53"/>
      </defs>
      <g transform="translate(230.223437 245.158437)scale(0.1 -0.1)">
       <use xlink:href="#DejaVuSans-48"/>
       <use x="63.623047" xlink:href="#DejaVuSans-46"/>
       <use x="95.410156" xlink:href="#DejaVuSans-53"/>
      </g>
     </g>
    </g>
    <g id="xtick_5">
     <g id="line2d_9">
      <path clip-path="url(#p9d57f392b0)" d="M 294.796 230.56 
L 294.796 10.8 
" style="fill:none;stroke:#b0b0b0;stroke-linecap:square;stroke-width:0.8;"/>
     </g>
     <g id="line2d_10">
      <g>
       <use style="stroke:#000000;stroke-width:0.8;" x="294.796" xlink:href="#m5a15f31dd4" y="230.56"/>
      </g>
     </g>
     <g id="text_5">
      <!-- 0.6 -->
      <defs>
       <path d="M 33.015625 40.375 
Q 26.375 40.375 22.484375 35.828125 
Q 18.609375 31.296875 18.609375 23.390625 
Q 18.609375 15.53125 22.484375 10.953125 
Q 26.375 6.390625 33.015625 6.390625 
Q 39.65625 6.390625 43.53125 10.953125 
Q 47.40625 15.53125 47.40625 23.390625 
Q 47.40625 31.296875 43.53125 35.828125 
Q 39.65625 40.375 33.015625 40.375 
z
M 52.59375 71.296875 
L 52.59375 62.3125 
Q 48.875 64.0625 45.09375 64.984375 
Q 41.3125 65.921875 37.59375 65.921875 
Q 27.828125 65.921875 22.671875 59.328125 
Q 17.53125 52.734375 16.796875 39.40625 
Q 19.671875 43.65625 24.015625 45.921875 
Q 28.375 48.1875 33.59375 48.1875 
Q 44.578125 48.1875 50.953125 41.515625 
Q 57.328125 34.859375 57.328125 23.390625 
Q 57.328125 12.15625 50.6875 5.359375 
Q 44.046875 -1.421875 33.015625 -1.421875 
Q 20.359375 -1.421875 13.671875 8.265625 
Q 6.984375 17.96875 6.984375 36.375 
Q 6.984375 53.65625 15.1875 63.9375 
Q 23.390625 74.21875 37.203125 74.21875 
Q 40.921875 74.21875 44.703125 73.484375 
Q 48.484375 72.75 52.59375 71.296875 
z
" id="DejaVuSans-54"/>
      </defs>
      <g transform="translate(286.844438 245.158437)scale(0.1 -0.1)">
       <use xlink:href="#DejaVuSans-48"/>
       <use x="63.623047" xlink:href="#DejaVuSans-46"/>
       <use x="95.410156" xlink:href="#DejaVuSans-54"/>
      </g>
     </g>
    </g>
    <g id="xtick_6">
     <g id="line2d_11">
      <path clip-path="url(#p9d57f392b0)" d="M 351.417 230.56 
L 351.417 10.8 
" style="fill:none;stroke:#b0b0b0;stroke-linecap:square;stroke-width:0.8;"/>
     </g>
     <g id="line2d_12">
      <g>
       <use style="stroke:#000000;stroke-width:0.8;" x="351.417" xlink:href="#m5a15f31dd4" y="230.56"/>
      </g>
     </g>
     <g id="text_6">
      <!-- 0.7 -->
      <defs>
       <path d="M 8.203125 72.90625 
L 55.078125 72.90625 
L 55.078125 68.703125 
L 28.609375 0 
L 18.3125 0 
L 43.21875 64.59375 
L 8.203125 64.59375 
z
" id="DejaVuSans-55"/>
      </defs>
      <g transform="translate(343.465437 245.158437)scale(0.1 -0.1)">
       <use xlink:href="#DejaVuSans-48"/>
       <use x="63.623047" xlink:href="#DejaVuSans-46"/>
       <use x="95.410156" xlink:href="#DejaVuSans-55"/>
      </g>
     </g>
    </g>
    <g id="xtick_7">
     <g id="line2d_13">
      <path clip-path="url(#p9d57f392b0)" d="M 408.038 230.56 
L 408.038 10.8 
" style="fill:none;stroke:#b0b0b0;stroke-linecap:square;stroke-width:0.8;"/>
     </g>
     <g id="line2d_14">
      <g>
       <use style="stroke:#000000;stroke-width:0.8;" x="408.038" xlink:href="#m5a15f31dd4" y="230.56"/>
      </g>
     </g>
     <g id="text_7">
      <!-- 0.8 -->
      <defs>
       <path d="M 31.78125 34.625 
Q 24.75 34.625 20.71875 30.859375 
Q 16.703125 27.09375 16.703125 20.515625 
Q 16.703125 13.921875 20.71875 10.15625 
Q 24.75 6.390625 31.78125 6.390625 
Q 38.8125 6.390625 42.859375 10.171875 
Q 46.921875 13.96875 46.921875 20.515625 
Q 46.921875 27.09375 42.890625 30.859375 
Q 38.875 34.625 31.78125 34.625 
z
M 21.921875 38.8125 
Q 15.578125 40.375 12.03125 44.71875 
Q 8.5 49.078125 8.5 55.328125 
Q 8.5 64.0625 14.71875 69.140625 
Q 20.953125 74.21875 31.78125 74.21875 
Q 42.671875 74.21875 48.875 69.140625 
Q 55.078125 64.0625 55.078125 55.328125 
Q 55.078125 49.078125 51.53125 44.71875 
Q 48 40.375 41.703125 38.8125 
Q 48.828125 37.15625 52.796875 32.3125 
Q 56.78125 27.484375 56.78125 20.515625 
Q 56.78125 9.90625 50.3125 4.234375 
Q 43.84375 -1.421875 31.78125 -1.421875 
Q 19.734375 -1.421875 13.25 4.234375 
Q 6.78125 9.90625 6.78125 20.515625 
Q 6.78125 27.484375 10.78125 32.3125 
Q 14.796875 37.15625 21.921875 38.8125 
z
M 18.3125 54.390625 
Q 18.3125 48.734375 21.84375 45.5625 
Q 25.390625 42.390625 31.78125 42.390625 
Q 38.140625 42.390625 41.71875 45.5625 
Q 45.3125 48.734375 45.3125 54.390625 
Q 45.3125 60.0625 41.71875 63.234375 
Q 38.140625 66.40625 31.78125 66.40625 
Q 25.390625 66.40625 21.84375 63.234375 
Q 18.3125 60.0625 18.3125 54.390625 
z
" id="DejaVuSans-56"/>
      </defs>
      <g transform="translate(400.086437 245.158437)scale(0.1 -0.1)">
       <use xlink:href="#DejaVuSans-48"/>
       <use x="63.623047" xlink:href="#DejaVuSans-46"/>
       <use x="95.410156" xlink:href="#DejaVuSans-56"/>
      </g>
     </g>
    </g>
    <g id="xtick_8">
     <g id="line2d_15">
      <path clip-path="url(#p9d57f392b0)" d="M 464.659 230.56 
L 464.659 10.8 
" style="fill:none;stroke:#b0b0b0;stroke-linecap:square;stroke-width:0.8;"/>
     </g>
     <g id="line2d_16">
      <g>
       <use style="stroke:#000000;stroke-width:0.8;" x="464.659" xlink:href="#m5a15f31dd4" y="230.56"/>
      </g>
     </g>
     <g id="text_8">
      <!-- 0.9 -->
      <defs>
       <path d="M 10.984375 1.515625 
L 10.984375 10.5 
Q 14.703125 8.734375 18.5 7.8125 
Q 22.3125 6.890625 25.984375 6.890625 
Q 35.75 6.890625 40.890625 13.453125 
Q 46.046875 20.015625 46.78125 33.40625 
Q 43.953125 29.203125 39.59375 26.953125 
Q 35.25 24.703125 29.984375 24.703125 
Q 19.046875 24.703125 12.671875 31.3125 
Q 6.296875 37.9375 6.296875 49.421875 
Q 6.296875 60.640625 12.9375 67.421875 
Q 19.578125 74.21875 30.609375 74.21875 
Q 43.265625 74.21875 49.921875 64.515625 
Q 56.59375 54.828125 56.59375 36.375 
Q 56.59375 19.140625 48.40625 8.859375 
Q 40.234375 -1.421875 26.421875 -1.421875 
Q 22.703125 -1.421875 18.890625 -0.6875 
Q 15.09375 0.046875 10.984375 1.515625 
z
M 30.609375 32.421875 
Q 37.25 32.421875 41.125 36.953125 
Q 45.015625 41.5 45.015625 49.421875 
Q 45.015625 57.28125 41.125 61.84375 
Q 37.25 66.40625 30.609375 66.40625 
Q 23.96875 66.40625 20.09375 61.84375 
Q 16.21875 57.28125 16.21875 49.421875 
Q 16.21875 41.5 20.09375 36.953125 
Q 23.96875 32.421875 30.609375 32.421875 
z
" id="DejaVuSans-57"/>
      </defs>
      <g transform="translate(456.707437 245.158437)scale(0.1 -0.1)">
       <use xlink:href="#DejaVuSans-48"/>
       <use x="63.623047" xlink:href="#DejaVuSans-46"/>
       <use x="95.410156" xlink:href="#DejaVuSans-57"/>
      </g>
     </g>
    </g>
    <g id="xtick_9">
     <g id="line2d_17">
      <path clip-path="url(#p9d57f392b0)" d="M 521.28 230.56 
L 521.28 10.8 
" style="fill:none;stroke:#b0b0b0;stroke-linecap:square;stroke-width:0.8;"/>
     </g>
     <g id="line2d_18">
      <g>
       <use style="stroke:#000000;stroke-width:0.8;" x="521.28" xlink:href="#m5a15f31dd4" y="230.56"/>
      </g>
     </g>
     <g id="text_9">
      <!-- 1.0 -->
      <defs>
       <path d="M 12.40625 8.296875 
L 28.515625 8.296875 
L 28.515625 63.921875 
L 10.984375 60.40625 
L 10.984375 69.390625 
L 28.421875 72.90625 
L 38.28125 72.90625 
L 38.28125 8.296875 
L 54.390625 8.296875 
L 54.390625 0 
L 12.40625 0 
z
" id="DejaVuSans-49"/>
      </defs>
      <g transform="translate(513.328437 245.158437)scale(0.1 -0.1)">
       <use xlink:href="#DejaVuSans-49"/>
       <use x="63.623047" xlink:href="#DejaVuSans-46"/>
       <use x="95.410156" xlink:href="#DejaVuSans-48"/>
      </g>
     </g>
    </g>
    <g id="text_10">
     <!-- $M$ in GeV -->
     <defs>
      <path d="M 16.890625 72.90625 
L 31.6875 72.90625 
L 40.1875 23.78125 
L 68.40625 72.90625 
L 83.59375 72.90625 
L 69.390625 0 
L 59.8125 0 
L 72.21875 63.921875 
L 43.609375 14.015625 
L 33.984375 14.015625 
L 24.703125 64.109375 
L 12.3125 0 
L 2.6875 0 
z
" id="DejaVuSans-Oblique-77"/>
      <path id="DejaVuSans-32"/>
      <path d="M 9.421875 54.6875 
L 18.40625 54.6875 
L 18.40625 0 
L 9.421875 0 
z
M 9.421875 75.984375 
L 18.40625 75.984375 
L 18.40625 64.59375 
L 9.421875 64.59375 
z
" id="DejaVuSans-105"/>
      <path d="M 54.890625 33.015625 
L 54.890625 0 
L 45.90625 0 
L 45.90625 32.71875 
Q 45.90625 40.484375 42.875 44.328125 
Q 39.84375 48.1875 33.796875 48.1875 
Q 26.515625 48.1875 22.3125 43.546875 
Q 18.109375 38.921875 18.109375 30.90625 
L 18.109375 0 
L 9.078125 0 
L 9.078125 54.6875 
L 18.109375 54.6875 
L 18.109375 46.1875 
Q 21.34375 51.125 25.703125 53.5625 
Q 30.078125 56 35.796875 56 
Q 45.21875 56 50.046875 50.171875 
Q 54.890625 44.34375 54.890625 33.015625 
z
" id="DejaVuSans-110"/>
      <path d="M 59.515625 10.40625 
L 59.515625 29.984375 
L 43.40625 29.984375 
L 43.40625 38.09375 
L 69.28125 38.09375 
L 69.28125 6.78125 
Q 63.578125 2.734375 56.6875 0.65625 
Q 49.8125 -1.421875 42 -1.421875 
Q 24.90625 -1.421875 15.25 8.5625 
Q 5.609375 18.5625 5.609375 36.375 
Q 5.609375 54.25 15.25 64.234375 
Q 24.90625 74.21875 42 74.21875 
Q 49.125 74.21875 55.546875 72.453125 
Q 61.96875 70.703125 67.390625 67.28125 
L 67.390625 56.78125 
Q 61.921875 61.421875 55.765625 63.765625 
Q 49.609375 66.109375 42.828125 66.109375 
Q 29.4375 66.109375 22.71875 58.640625 
Q 16.015625 51.171875 16.015625 36.375 
Q 16.015625 21.625 22.71875 14.15625 
Q 29.4375 6.6875 42.828125 6.6875 
Q 48.046875 6.6875 52.140625 7.59375 
Q 56.25 8.5 59.515625 10.40625 
z
" id="DejaVuSans-71"/>
      <path d="M 56.203125 29.59375 
L 56.203125 25.203125 
L 14.890625 25.203125 
Q 15.484375 15.921875 20.484375 11.0625 
Q 25.484375 6.203125 34.421875 6.203125 
Q 39.59375 6.203125 44.453125 7.46875 
Q 49.3125 8.734375 54.109375 11.28125 
L 54.109375 2.78125 
Q 49.265625 0.734375 44.1875 -0.34375 
Q 39.109375 -1.421875 33.890625 -1.421875 
Q 20.796875 -1.421875 13.15625 6.1875 
Q 5.515625 13.8125 5.515625 26.8125 
Q 5.515625 40.234375 12.765625 48.109375 
Q 20.015625 56 32.328125 56 
Q 43.359375 56 49.78125 48.890625 
Q 56.203125 41.796875 56.203125 29.59375 
z
M 47.21875 32.234375 
Q 47.125 39.59375 43.09375 43.984375 
Q 39.0625 48.390625 32.421875 48.390625 
Q 24.90625 48.390625 20.390625 44.140625 
Q 15.875 39.890625 15.1875 32.171875 
z
" id="DejaVuSans-101"/>
      <path d="M 28.609375 0 
L 0.78125 72.90625 
L 11.078125 72.90625 
L 34.1875 11.53125 
L 57.328125 72.90625 
L 67.578125 72.90625 
L 39.796875 0 
z
" id="DejaVuSans-86"/>
     </defs>
     <g transform="translate(267.856 260.35625)scale(0.12 -0.12)">
      <use transform="translate(0 0.015625)" xlink:href="#DejaVuSans-Oblique-77"/>
      <use transform="translate(86.279297 0.015625)" xlink:href="#DejaVuSans-32"/>
      <use transform="translate(118.066406 0.015625)" xlink:href="#DejaVuSans-105"/>
      <use transform="translate(145.849609 0.015625)" xlink:href="#DejaVuSans-110"/>
      <use transform="translate(209.228516 0.015625)" xlink:href="#DejaVuSans-32"/>
      <use transform="translate(241.015625 0.015625)" xlink:href="#DejaVuSans-71"/>
      <use transform="translate(318.505859 0.015625)" xlink:href="#DejaVuSans-101"/>
      <use transform="translate(380.029297 0.015625)" xlink:href="#DejaVuSans-86"/>
     </g>
    </g>
   </g>
   <g id="matplotlib.axis_2">
    <g id="ytick_1">
     <g id="line2d_19">
      <path clip-path="url(#p9d57f392b0)" d="M 68.312 230.56 
L 521.28 230.56 
" style="fill:none;stroke:#b0b0b0;stroke-linecap:square;stroke-width:0.8;"/>
     </g>
     <g id="line2d_20">
      <defs>
       <path d="M 0 0 
L -3.5 0 
" id="mb3ce3bdbe2" style="stroke:#000000;stroke-width:0.8;"/>
      </defs>
      <g>
       <use style="stroke:#000000;stroke-width:0.8;" x="68.312" xlink:href="#mb3ce3bdbe2" y="230.56"/>
      </g>
     </g>
     <g id="text_11">
      <!-- 0.010 -->
      <g transform="translate(32.683875 234.359219)scale(0.1 -0.1)">
       <use xlink:href="#DejaVuSans-48"/>
       <use x="63.623047" xlink:href="#DejaVuSans-46"/>
       <use x="95.410156" xlink:href="#DejaVuSans-48"/>
       <use x="159.033203" xlink:href="#DejaVuSans-49"/>
       <use x="222.65625" xlink:href="#DejaVuSans-48"/>
      </g>
     </g>
    </g>
    <g id="ytick_2">
     <g id="line2d_21">
      <path clip-path="url(#p9d57f392b0)" d="M 68.312 173.879124 
L 521.28 173.879124 
" style="fill:none;stroke:#b0b0b0;stroke-linecap:square;stroke-width:0.8;"/>
     </g>
     <g id="line2d_22">
      <g>
       <use style="stroke:#000000;stroke-width:0.8;" x="68.312" xlink:href="#mb3ce3bdbe2" y="173.879124"/>
      </g>
     </g>
     <g id="text_12">
      <!-- 0.015 -->
      <g transform="translate(32.683875 177.678343)scale(0.1 -0.1)">
       <use xlink:href="#DejaVuSans-48"/>
       <use x="63.623047" xlink:href="#DejaVuSans-46"/>
       <use x="95.410156" xlink:href="#DejaVuSans-48"/>
       <use x="159.033203" xlink:href="#DejaVuSans-49"/>
       <use x="222.65625" xlink:href="#DejaVuSans-53"/>
      </g>
     </g>
    </g>
    <g id="ytick_3">
     <g id="line2d_23">
      <path clip-path="url(#p9d57f392b0)" d="M 68.312 117.198248 
L 521.28 117.198248 
" style="fill:none;stroke:#b0b0b0;stroke-linecap:square;stroke-width:0.8;"/>
     </g>
     <g id="line2d_24">
      <g>
       <use style="stroke:#000000;stroke-width:0.8;" x="68.312" xlink:href="#mb3ce3bdbe2" y="117.198248"/>
      </g>
     </g>
     <g id="text_13">
      <!-- 0.020 -->
      <g transform="translate(32.683875 120.997466)scale(0.1 -0.1)">
       <use xlink:href="#DejaVuSans-48"/>
       <use x="63.623047" xlink:href="#DejaVuSans-46"/>
       <use x="95.410156" xlink:href="#DejaVuSans-48"/>
       <use x="159.033203" xlink:href="#DejaVuSans-50"/>
       <use x="222.65625" xlink:href="#DejaVuSans-48"/>
      </g>
     </g>
    </g>
    <g id="ytick_4">
     <g id="line2d_25">
      <path clip-path="url(#p9d57f392b0)" d="M 68.312 60.517371 
L 521.28 60.517371 
" style="fill:none;stroke:#b0b0b0;stroke-linecap:square;stroke-width:0.8;"/>
     </g>
     <g id="line2d_26">
      <g>
       <use style="stroke:#000000;stroke-width:0.8;" x="68.312" xlink:href="#mb3ce3bdbe2" y="60.517371"/>
      </g>
     </g>
     <g id="text_14">
      <!-- 0.025 -->
      <g transform="translate(32.683875 64.31659)scale(0.1 -0.1)">
       <use xlink:href="#DejaVuSans-48"/>
       <use x="63.623047" xlink:href="#DejaVuSans-46"/>
       <use x="95.410156" xlink:href="#DejaVuSans-48"/>
       <use x="159.033203" xlink:href="#DejaVuSans-50"/>
       <use x="222.65625" xlink:href="#DejaVuSans-53"/>
      </g>
     </g>
    </g>
    <g id="text_15">
     <!-- $\lambda_{H}^{4}$ in GeV$^4$ -->
     <defs>
      <path d="M 36.71875 67.4375 
L 48.828125 0 
L 39.3125 0 
L 31.84375 40.4375 
L 5.125 0 
L -4.390625 0 
L 29.734375 52.4375 
L 28.03125 62.109375 
Q 26.953125 68.265625 21.734375 68.265625 
L 17.046875 68.265625 
L 18.5 75.984375 
L 24.21875 75.875 
Q 35.203125 75.734375 36.71875 67.4375 
z
" id="DejaVuSans-Oblique-955"/>
      <path d="M 16.890625 72.90625 
L 26.8125 72.90625 
L 21 43.015625 
L 56.78125 43.015625 
L 62.59375 72.90625 
L 72.515625 72.90625 
L 58.296875 0 
L 48.390625 0 
L 55.171875 34.71875 
L 19.390625 34.71875 
L 12.59375 0 
L 2.6875 0 
z
" id="DejaVuSans-Oblique-72"/>
     </defs>
     <g transform="translate(25.323875 152.18)rotate(-90)scale(0.12 -0.12)">
      <use transform="translate(0 0.684375)" xlink:href="#DejaVuSans-Oblique-955"/>
      <use transform="translate(66.627396 38.965625)scale(0.7)" xlink:href="#DejaVuSans-52"/>
      <use transform="translate(59.179688 -26.659375)scale(0.7)" xlink:href="#DejaVuSans-Oblique-72"/>
      <use transform="translate(114.550781 0.684375)" xlink:href="#DejaVuSans-32"/>
      <use transform="translate(146.337891 0.684375)" xlink:href="#DejaVuSans-105"/>
      <use transform="translate(174.121094 0.684375)" xlink:href="#DejaVuSans-110"/>
      <use transform="translate(237.5 0.684375)" xlink:href="#DejaVuSans-32"/>
      <use transform="translate(269.287109 0.684375)" xlink:href="#DejaVuSans-71"/>
      <use transform="translate(346.777344 0.684375)" xlink:href="#DejaVuSans-101"/>
      <use transform="translate(408.300781 0.684375)" xlink:href="#DejaVuSans-86"/>
      <use transform="translate(477.666016 38.965625)scale(0.7)" xlink:href="#DejaVuSans-52"/>
     </g>
    </g>
   </g>
   <g id="line2d_27">
    <path clip-path="url(#p9d57f392b0)" d="M 68.312 19.887641 
L 71.14305 50.052661 
L 73.9741 72.8769 
L 76.80515 90.696308 
L 79.6362 104.953102 
L 82.46725 116.58582 
L 85.2983 126.231494 
L 88.12935 134.337672 
L 90.9604 141.227948 
L 93.79145 147.142057 
L 96.6225 152.261345 
L 99.45355 156.725497 
L 102.2846 160.643817 
L 105.11565 164.103037 
L 107.9467 167.172837 
L 110.77775 169.909813 
L 113.6088 172.360398 
L 116.43985 174.563025 
L 119.2709 176.549768 
L 122.10195 178.34759 
L 124.933 179.979312 
L 127.76405 181.464371 
L 133.42615 184.058774 
L 139.08825 186.238433 
L 144.75035 188.084561 
L 150.41245 189.659449 
L 156.07455 191.011574 
L 161.73665 192.179138 
L 170.2298 193.649374 
L 178.72295 194.850595 
L 187.2161 195.841037 
L 198.5403 196.907562 
L 209.8645 197.751502 
L 224.01975 198.573845 
L 241.00605 199.313089 
L 260.8234 199.93759 
L 286.30285 200.490383 
L 317.4444 200.925474 
L 359.91015 201.272115 
L 419.3622 201.510261 
L 512.78685 201.636332 
L 521.28 201.640465 
L 521.28 201.640465 
" style="fill:none;stroke:#ff0000;stroke-dasharray:7.4,3.2;stroke-dashoffset:0;stroke-width:2;"/>
   </g>
   <g id="line2d_28">
    <path clip-path="url(#p9d57f392b0)" d="M 68.312 31.752597 
L 71.14305 59.763762 
L 73.9741 81.064716 
L 76.80515 97.754886 
L 79.6362 111.142955 
L 82.46725 122.087072 
L 85.2983 131.173323 
L 88.12935 138.815586 
L 90.9604 145.31441 
L 93.79145 150.893281 
L 96.6225 155.721796 
L 99.45355 159.930948 
L 102.2846 163.62349 
L 105.11565 166.881129 
L 107.9467 169.769625 
L 110.77775 172.342483 
L 113.6088 174.643657 
L 116.43985 176.709576 
L 119.2709 178.570672 
L 122.10195 180.252553 
L 124.933 181.776909 
L 130.5951 184.42434 
L 136.2572 186.631712 
L 141.9193 188.487855 
L 147.5814 190.060383 
L 153.2435 191.401535 
L 158.9056 192.552212 
L 167.39875 193.990136 
L 175.8919 195.154477 
L 184.38505 196.106259 
L 195.70925 197.121353 
L 207.03345 197.916038 
L 221.1887 198.681531 
L 238.175 199.360386 
L 257.99235 199.925029 
L 283.4718 200.415667 
L 317.4444 200.818964 
L 362.7412 201.111033 
L 430.6864 201.299908 
L 521.28 201.367114 
L 521.28 201.367114 
" style="fill:none;stroke:#000000;stroke-linecap:square;stroke-width:2;"/>
   </g>
   <g id="line2d_29">
    <path clip-path="url(#p9d57f392b0)" d="M 68.312 39.372916 
L 71.14305 66.040396 
L 73.9741 86.377092 
L 76.80515 102.342461 
L 79.6362 115.165288 
L 82.46725 125.6552 
L 85.2983 134.367321 
L 88.12935 141.694949 
L 90.9604 147.924487 
L 93.79145 153.26941 
L 96.6225 157.892056 
L 99.45355 161.918039 
L 102.2846 165.446049 
L 105.11565 168.554671 
L 107.9467 171.307232 
L 110.77775 173.755311 
L 113.6088 175.941321 
L 116.43985 177.900442 
L 119.2709 179.662083 
L 122.10195 181.251004 
L 124.933 182.688188 
L 130.5951 185.176344 
L 136.2572 187.241503 
L 141.9193 188.969674 
L 147.5814 190.426314 
L 153.2435 191.661974 
L 158.9056 192.7162 
L 167.39875 194.024045 
L 175.8919 195.073243 
L 184.38505 195.92251 
L 195.70925 196.817434 
L 209.8645 197.654828 
L 224.01975 198.269528 
L 243.8371 198.875476 
L 266.4855 199.32936 
L 297.62705 199.703576 
L 340.0928 199.959767 
L 402.3759 200.091672 
L 521.28 200.079993 
L 521.28 200.079993 
" style="fill:none;stroke:#0000ff;stroke-dasharray:7.4,3.2;stroke-dashoffset:0;stroke-width:2;"/>
   </g>
   <g id="patch_3">
    <path d="M 68.312 230.56 
L 68.312 10.8 
" style="fill:none;stroke:#000000;stroke-linecap:square;stroke-linejoin:miter;stroke-width:0.8;"/>
   </g>
   <g id="patch_4">
    <path d="M 521.28 230.56 
L 521.28 10.8 
" style="fill:none;stroke:#000000;stroke-linecap:square;stroke-linejoin:miter;stroke-width:0.8;"/>
   </g>
   <g id="patch_5">
    <path d="M 68.312 230.56 
L 521.28 230.56 
" style="fill:none;stroke:#000000;stroke-linecap:square;stroke-linejoin:miter;stroke-width:0.8;"/>
   </g>
   <g id="patch_6">
    <path d="M 68.312 10.8 
L 521.28 10.8 
" style="fill:none;stroke:#000000;stroke-linecap:square;stroke-linejoin:miter;stroke-width:0.8;"/>
   </g>
   <g id="legend_1">
    <g id="patch_7">
     <path d="M 346.52 75.24125 
L 514.88 75.24125 
Q 517.28 75.24125 517.28 72.84125 
L 517.28 21.2 
Q 517.28 18.8 514.88 18.8 
L 346.52 18.8 
Q 344.12 18.8 344.12 21.2 
L 344.12 72.84125 
Q 344.12 75.24125 346.52 75.24125 
z
" style="fill:#4c4c4c;opacity:0.5;stroke:#4c4c4c;stroke-linejoin:miter;"/>
    </g>
    <g id="patch_8">
     <path d="M 344.52 73.24125 
L 512.88 73.24125 
Q 515.28 73.24125 515.28 70.84125 
L 515.28 19.2 
Q 515.28 16.8 512.88 16.8 
L 344.52 16.8 
Q 342.12 16.8 342.12 19.2 
L 342.12 70.84125 
Q 342.12 73.24125 344.52 73.24125 
z
" style="fill:#ffffff;stroke:#cccccc;stroke-linejoin:miter;"/>
    </g>
    <g id="line2d_30">
     <path d="M 346.92 26.518125 
L 370.92 26.518125 
" style="fill:none;stroke:#ff0000;stroke-dasharray:7.4,3.2;stroke-dashoffset:0;stroke-width:2;"/>
    </g>
    <g id="line2d_31"/>
    <g id="text_16">
     <!-- OPE for $\omega_{th} = 0.8$ GeV -->
     <defs>
      <path d="M 39.40625 66.21875 
Q 28.65625 66.21875 22.328125 58.203125 
Q 16.015625 50.203125 16.015625 36.375 
Q 16.015625 22.609375 22.328125 14.59375 
Q 28.65625 6.59375 39.40625 6.59375 
Q 50.140625 6.59375 56.421875 14.59375 
Q 62.703125 22.609375 62.703125 36.375 
Q 62.703125 50.203125 56.421875 58.203125 
Q 50.140625 66.21875 39.40625 66.21875 
z
M 39.40625 74.21875 
Q 54.734375 74.21875 63.90625 63.9375 
Q 73.09375 53.65625 73.09375 36.375 
Q 73.09375 19.140625 63.90625 8.859375 
Q 54.734375 -1.421875 39.40625 -1.421875 
Q 24.03125 -1.421875 14.8125 8.828125 
Q 5.609375 19.09375 5.609375 36.375 
Q 5.609375 53.65625 14.8125 63.9375 
Q 24.03125 74.21875 39.40625 74.21875 
z
" id="DejaVuSans-79"/>
      <path d="M 19.671875 64.796875 
L 19.671875 37.40625 
L 32.078125 37.40625 
Q 38.96875 37.40625 42.71875 40.96875 
Q 46.484375 44.53125 46.484375 51.125 
Q 46.484375 57.671875 42.71875 61.234375 
Q 38.96875 64.796875 32.078125 64.796875 
z
M 9.8125 72.90625 
L 32.078125 72.90625 
Q 44.34375 72.90625 50.609375 67.359375 
Q 56.890625 61.8125 56.890625 51.125 
Q 56.890625 40.328125 50.609375 34.8125 
Q 44.34375 29.296875 32.078125 29.296875 
L 19.671875 29.296875 
L 19.671875 0 
L 9.8125 0 
z
" id="DejaVuSans-80"/>
      <path d="M 9.8125 72.90625 
L 55.90625 72.90625 
L 55.90625 64.59375 
L 19.671875 64.59375 
L 19.671875 43.015625 
L 54.390625 43.015625 
L 54.390625 34.71875 
L 19.671875 34.71875 
L 19.671875 8.296875 
L 56.78125 8.296875 
L 56.78125 0 
L 9.8125 0 
z
" id="DejaVuSans-69"/>
      <path d="M 37.109375 75.984375 
L 37.109375 68.5 
L 28.515625 68.5 
Q 23.6875 68.5 21.796875 66.546875 
Q 19.921875 64.59375 19.921875 59.515625 
L 19.921875 54.6875 
L 34.71875 54.6875 
L 34.71875 47.703125 
L 19.921875 47.703125 
L 19.921875 0 
L 10.890625 0 
L 10.890625 47.703125 
L 2.296875 47.703125 
L 2.296875 54.6875 
L 10.890625 54.6875 
L 10.890625 58.5 
Q 10.890625 67.625 15.140625 71.796875 
Q 19.390625 75.984375 28.609375 75.984375 
z
" id="DejaVuSans-102"/>
      <path d="M 30.609375 48.390625 
Q 23.390625 48.390625 19.1875 42.75 
Q 14.984375 37.109375 14.984375 27.296875 
Q 14.984375 17.484375 19.15625 11.84375 
Q 23.34375 6.203125 30.609375 6.203125 
Q 37.796875 6.203125 41.984375 11.859375 
Q 46.1875 17.53125 46.1875 27.296875 
Q 46.1875 37.015625 41.984375 42.703125 
Q 37.796875 48.390625 30.609375 48.390625 
z
M 30.609375 56 
Q 42.328125 56 49.015625 48.375 
Q 55.71875 40.765625 55.71875 27.296875 
Q 55.71875 13.875 49.015625 6.21875 
Q 42.328125 -1.421875 30.609375 -1.421875 
Q 18.84375 -1.421875 12.171875 6.21875 
Q 5.515625 13.875 5.515625 27.296875 
Q 5.515625 40.765625 12.171875 48.375 
Q 18.84375 56 30.609375 56 
z
" id="DejaVuSans-111"/>
      <path d="M 41.109375 46.296875 
Q 39.59375 47.171875 37.8125 47.578125 
Q 36.03125 48 33.890625 48 
Q 26.265625 48 22.1875 43.046875 
Q 18.109375 38.09375 18.109375 28.8125 
L 18.109375 0 
L 9.078125 0 
L 9.078125 54.6875 
L 18.109375 54.6875 
L 18.109375 46.1875 
Q 20.953125 51.171875 25.484375 53.578125 
Q 30.03125 56 36.53125 56 
Q 37.453125 56 38.578125 55.875 
Q 39.703125 55.765625 41.0625 55.515625 
z
" id="DejaVuSans-114"/>
      <path d="M 21.390625 -1.421875 
Q 1.125 -1.421875 6.78125 27.59375 
Q 8.984375 39.0625 19.625 54.6875 
L 29.296875 54.6875 
Q 19.234375 39.0625 17 27.34375 
Q 12.796875 6.203125 23.734375 6.203125 
Q 33.84375 6.203125 38.71875 32.46875 
L 47.015625 32.46875 
Q 41.703125 6.0625 51.8125 6.203125 
Q 62.703125 6.296875 66.796875 27.34375 
Q 69.046875 39.0625 65.140625 54.6875 
L 74.8125 54.6875 
Q 79.296875 39.0625 77.09375 27.59375 
Q 71.53125 -1.46875 51.21875 -1.421875 
Q 37.9375 -1.375 39.109375 13.1875 
Q 34.28125 -1.421875 21.390625 -1.421875 
z
" id="DejaVuSans-Oblique-969"/>
      <path d="M 42.28125 54.6875 
L 40.921875 47.703125 
L 23 47.703125 
L 17.1875 18.015625 
Q 16.890625 16.359375 16.75 15.234375 
Q 16.609375 14.109375 16.609375 13.484375 
Q 16.609375 10.359375 18.484375 8.9375 
Q 20.359375 7.515625 24.515625 7.515625 
L 33.59375 7.515625 
L 32.078125 0 
L 23.484375 0 
Q 15.484375 0 11.546875 3.125 
Q 7.625 6.25 7.625 12.59375 
Q 7.625 13.71875 7.765625 15.0625 
Q 7.90625 16.40625 8.203125 18.015625 
L 14.015625 47.703125 
L 6.390625 47.703125 
L 7.8125 54.6875 
L 15.28125 54.6875 
L 18.3125 70.21875 
L 27.296875 70.21875 
L 24.3125 54.6875 
z
" id="DejaVuSans-Oblique-116"/>
      <path d="M 55.71875 33.015625 
L 49.3125 0 
L 40.28125 0 
L 46.6875 32.671875 
Q 47.125 34.96875 47.359375 36.71875 
Q 47.609375 38.484375 47.609375 39.5 
Q 47.609375 43.609375 45.015625 45.890625 
Q 42.4375 48.1875 37.796875 48.1875 
Q 30.5625 48.1875 25.265625 43.296875 
Q 19.96875 38.421875 18.40625 30.328125 
L 12.5 0 
L 3.515625 0 
L 18.3125 75.984375 
L 27.296875 75.984375 
L 21.484375 46.09375 
Q 24.90625 50.6875 30.21875 53.34375 
Q 35.546875 56 41.40625 56 
Q 48.640625 56 52.609375 52.09375 
Q 56.59375 48.1875 56.59375 41.109375 
Q 56.59375 39.359375 56.375 37.359375 
Q 56.15625 35.359375 55.71875 33.015625 
z
" id="DejaVuSans-Oblique-104"/>
      <path d="M 10.59375 45.40625 
L 73.1875 45.40625 
L 73.1875 37.203125 
L 10.59375 37.203125 
z
M 10.59375 25.484375 
L 73.1875 25.484375 
L 73.1875 17.1875 
L 10.59375 17.1875 
z
" id="DejaVuSans-61"/>
     </defs>
     <g transform="translate(380.52 30.718125)scale(0.12 -0.12)">
      <use transform="translate(0 0.015625)" xlink:href="#DejaVuSans-79"/>
      <use transform="translate(78.710938 0.015625)" xlink:href="#DejaVuSans-80"/>
      <use transform="translate(139.013672 0.015625)" xlink:href="#DejaVuSans-69"/>
      <use transform="translate(202.197266 0.015625)" xlink:href="#DejaVuSans-32"/>
      <use transform="translate(233.984375 0.015625)" xlink:href="#DejaVuSans-102"/>
      <use transform="translate(269.189453 0.015625)" xlink:href="#DejaVuSans-111"/>
      <use transform="translate(330.371094 0.015625)" xlink:href="#DejaVuSans-114"/>
      <use transform="translate(371.484375 0.015625)" xlink:href="#DejaVuSans-32"/>
      <use transform="translate(403.271484 0.015625)" xlink:href="#DejaVuSans-Oblique-969"/>
      <use transform="translate(487.011719 -16.390625)scale(0.7)" xlink:href="#DejaVuSans-Oblique-116"/>
      <use transform="translate(514.458008 -16.390625)scale(0.7)" xlink:href="#DejaVuSans-Oblique-104"/>
      <use transform="translate(581.040039 0.015625)" xlink:href="#DejaVuSans-61"/>
      <use transform="translate(684.311523 0.015625)" xlink:href="#DejaVuSans-48"/>
      <use transform="translate(747.93457 0.015625)" xlink:href="#DejaVuSans-46"/>
      <use transform="translate(779.69043 0.015625)" xlink:href="#DejaVuSans-56"/>
      <use transform="translate(843.313477 0.015625)" xlink:href="#DejaVuSans-32"/>
      <use transform="translate(875.100586 0.015625)" xlink:href="#DejaVuSans-71"/>
      <use transform="translate(952.59082 0.015625)" xlink:href="#DejaVuSans-101"/>
      <use transform="translate(1014.114258 0.015625)" xlink:href="#DejaVuSans-86"/>
     </g>
    </g>
    <g id="line2d_32">
     <path d="M 346.92 44.131875 
L 370.92 44.131875 
" style="fill:none;stroke:#000000;stroke-linecap:square;stroke-width:2;"/>
    </g>
    <g id="line2d_33"/>
    <g id="text_17">
     <!-- OPE for $\omega_{th} = 0.9$ GeV -->
     <g transform="translate(380.52 48.331875)scale(0.12 -0.12)">
      <use transform="translate(0 0.015625)" xlink:href="#DejaVuSans-79"/>
      <use transform="translate(78.710938 0.015625)" xlink:href="#DejaVuSans-80"/>
      <use transform="translate(139.013672 0.015625)" xlink:href="#DejaVuSans-69"/>
      <use transform="translate(202.197266 0.015625)" xlink:href="#DejaVuSans-32"/>
      <use transform="translate(233.984375 0.015625)" xlink:href="#DejaVuSans-102"/>
      <use transform="translate(269.189453 0.015625)" xlink:href="#DejaVuSans-111"/>
      <use transform="translate(330.371094 0.015625)" xlink:href="#DejaVuSans-114"/>
      <use transform="translate(371.484375 0.015625)" xlink:href="#DejaVuSans-32"/>
      <use transform="translate(403.271484 0.015625)" xlink:href="#DejaVuSans-Oblique-969"/>
      <use transform="translate(487.011719 -16.390625)scale(0.7)" xlink:href="#DejaVuSans-Oblique-116"/>
      <use transform="translate(514.458008 -16.390625)scale(0.7)" xlink:href="#DejaVuSans-Oblique-104"/>
      <use transform="translate(581.040039 0.015625)" xlink:href="#DejaVuSans-61"/>
      <use transform="translate(684.311523 0.015625)" xlink:href="#DejaVuSans-48"/>
      <use transform="translate(747.93457 0.015625)" xlink:href="#DejaVuSans-46"/>
      <use transform="translate(779.72168 0.015625)" xlink:href="#DejaVuSans-57"/>
      <use transform="translate(843.344727 0.015625)" xlink:href="#DejaVuSans-32"/>
      <use transform="translate(875.131836 0.015625)" xlink:href="#DejaVuSans-71"/>
      <use transform="translate(952.62207 0.015625)" xlink:href="#DejaVuSans-101"/>
      <use transform="translate(1014.145508 0.015625)" xlink:href="#DejaVuSans-86"/>
     </g>
    </g>
    <g id="line2d_34">
     <path d="M 346.92 61.745625 
L 370.92 61.745625 
" style="fill:none;stroke:#0000ff;stroke-dasharray:7.4,3.2;stroke-dashoffset:0;stroke-width:2;"/>
    </g>
    <g id="line2d_35"/>
    <g id="text_18">
     <!-- OPE for $\omega_{th} = 1.0$ GeV -->
     <g transform="translate(380.52 65.945625)scale(0.12 -0.12)">
      <use transform="translate(0 0.015625)" xlink:href="#DejaVuSans-79"/>
      <use transform="translate(78.710938 0.015625)" xlink:href="#DejaVuSans-80"/>
      <use transform="translate(139.013672 0.015625)" xlink:href="#DejaVuSans-69"/>
      <use transform="translate(202.197266 0.015625)" xlink:href="#DejaVuSans-32"/>
      <use transform="translate(233.984375 0.015625)" xlink:href="#DejaVuSans-102"/>
      <use transform="translate(269.189453 0.015625)" xlink:href="#DejaVuSans-111"/>
      <use transform="translate(330.371094 0.015625)" xlink:href="#DejaVuSans-114"/>
      <use transform="translate(371.484375 0.015625)" xlink:href="#DejaVuSans-32"/>
      <use transform="translate(403.271484 0.015625)" xlink:href="#DejaVuSans-Oblique-969"/>
      <use transform="translate(487.011719 -16.390625)scale(0.7)" xlink:href="#DejaVuSans-Oblique-116"/>
      <use transform="translate(514.458008 -16.390625)scale(0.7)" xlink:href="#DejaVuSans-Oblique-104"/>
      <use transform="translate(581.040039 0.015625)" xlink:href="#DejaVuSans-61"/>
      <use transform="translate(684.311523 0.015625)" xlink:href="#DejaVuSans-49"/>
      <use transform="translate(747.93457 0.015625)" xlink:href="#DejaVuSans-46"/>
      <use transform="translate(779.72168 0.015625)" xlink:href="#DejaVuSans-48"/>
      <use transform="translate(843.344727 0.015625)" xlink:href="#DejaVuSans-32"/>
      <use transform="translate(875.131836 0.015625)" xlink:href="#DejaVuSans-71"/>
      <use transform="translate(952.62207 0.015625)" xlink:href="#DejaVuSans-101"/>
      <use transform="translate(1014.145508 0.015625)" xlink:href="#DejaVuSans-86"/>
     </g>
    </g>
   </g>
  </g>
  <g id="axes_2">
   <g id="patch_9">
    <path d="M 68.312 495.16 
L 521.28 495.16 
L 521.28 275.4 
L 68.312 275.4 
z
" style="fill:#ffffff;"/>
   </g>
   <g id="matplotlib.axis_3">
    <g id="xtick_10">
     <g id="line2d_36">
      <path clip-path="url(#pf53c4ca752)" d="M 68.312 495.16 
L 68.312 275.4 
" style="fill:none;stroke:#b0b0b0;stroke-linecap:square;stroke-width:0.8;"/>
     </g>
     <g id="line2d_37">
      <g>
       <use style="stroke:#000000;stroke-width:0.8;" x="68.312" xlink:href="#m5a15f31dd4" y="495.16"/>
      </g>
     </g>
     <g id="text_19">
      <!-- 0.2 -->
      <g transform="translate(60.360438 509.758438)scale(0.1 -0.1)">
       <use xlink:href="#DejaVuSans-48"/>
       <use x="63.623047" xlink:href="#DejaVuSans-46"/>
       <use x="95.410156" xlink:href="#DejaVuSans-50"/>
      </g>
     </g>
    </g>
    <g id="xtick_11">
     <g id="line2d_38">
      <path clip-path="url(#pf53c4ca752)" d="M 124.933 495.16 
L 124.933 275.4 
" style="fill:none;stroke:#b0b0b0;stroke-linecap:square;stroke-width:0.8;"/>
     </g>
     <g id="line2d_39">
      <g>
       <use style="stroke:#000000;stroke-width:0.8;" x="124.933" xlink:href="#m5a15f31dd4" y="495.16"/>
      </g>
     </g>
     <g id="text_20">
      <!-- 0.3 -->
      <g transform="translate(116.981438 509.758438)scale(0.1 -0.1)">
       <use xlink:href="#DejaVuSans-48"/>
       <use x="63.623047" xlink:href="#DejaVuSans-46"/>
       <use x="95.410156" xlink:href="#DejaVuSans-51"/>
      </g>
     </g>
    </g>
    <g id="xtick_12">
     <g id="line2d_40">
      <path clip-path="url(#pf53c4ca752)" d="M 181.554 495.16 
L 181.554 275.4 
" style="fill:none;stroke:#b0b0b0;stroke-linecap:square;stroke-width:0.8;"/>
     </g>
     <g id="line2d_41">
      <g>
       <use style="stroke:#000000;stroke-width:0.8;" x="181.554" xlink:href="#m5a15f31dd4" y="495.16"/>
      </g>
     </g>
     <g id="text_21">
      <!-- 0.4 -->
      <g transform="translate(173.602438 509.758438)scale(0.1 -0.1)">
       <use xlink:href="#DejaVuSans-48"/>
       <use x="63.623047" xlink:href="#DejaVuSans-46"/>
       <use x="95.410156" xlink:href="#DejaVuSans-52"/>
      </g>
     </g>
    </g>
    <g id="xtick_13">
     <g id="line2d_42">
      <path clip-path="url(#pf53c4ca752)" d="M 238.175 495.16 
L 238.175 275.4 
" style="fill:none;stroke:#b0b0b0;stroke-linecap:square;stroke-width:0.8;"/>
     </g>
     <g id="line2d_43">
      <g>
       <use style="stroke:#000000;stroke-width:0.8;" x="238.175" xlink:href="#m5a15f31dd4" y="495.16"/>
      </g>
     </g>
     <g id="text_22">
      <!-- 0.5 -->
      <g transform="translate(230.223437 509.758438)scale(0.1 -0.1)">
       <use xlink:href="#DejaVuSans-48"/>
       <use x="63.623047" xlink:href="#DejaVuSans-46"/>
       <use x="95.410156" xlink:href="#DejaVuSans-53"/>
      </g>
     </g>
    </g>
    <g id="xtick_14">
     <g id="line2d_44">
      <path clip-path="url(#pf53c4ca752)" d="M 294.796 495.16 
L 294.796 275.4 
" style="fill:none;stroke:#b0b0b0;stroke-linecap:square;stroke-width:0.8;"/>
     </g>
     <g id="line2d_45">
      <g>
       <use style="stroke:#000000;stroke-width:0.8;" x="294.796" xlink:href="#m5a15f31dd4" y="495.16"/>
      </g>
     </g>
     <g id="text_23">
      <!-- 0.6 -->
      <g transform="translate(286.844438 509.758438)scale(0.1 -0.1)">
       <use xlink:href="#DejaVuSans-48"/>
       <use x="63.623047" xlink:href="#DejaVuSans-46"/>
       <use x="95.410156" xlink:href="#DejaVuSans-54"/>
      </g>
     </g>
    </g>
    <g id="xtick_15">
     <g id="line2d_46">
      <path clip-path="url(#pf53c4ca752)" d="M 351.417 495.16 
L 351.417 275.4 
" style="fill:none;stroke:#b0b0b0;stroke-linecap:square;stroke-width:0.8;"/>
     </g>
     <g id="line2d_47">
      <g>
       <use style="stroke:#000000;stroke-width:0.8;" x="351.417" xlink:href="#m5a15f31dd4" y="495.16"/>
      </g>
     </g>
     <g id="text_24">
      <!-- 0.7 -->
      <g transform="translate(343.465437 509.758438)scale(0.1 -0.1)">
       <use xlink:href="#DejaVuSans-48"/>
       <use x="63.623047" xlink:href="#DejaVuSans-46"/>
       <use x="95.410156" xlink:href="#DejaVuSans-55"/>
      </g>
     </g>
    </g>
    <g id="xtick_16">
     <g id="line2d_48">
      <path clip-path="url(#pf53c4ca752)" d="M 408.038 495.16 
L 408.038 275.4 
" style="fill:none;stroke:#b0b0b0;stroke-linecap:square;stroke-width:0.8;"/>
     </g>
     <g id="line2d_49">
      <g>
       <use style="stroke:#000000;stroke-width:0.8;" x="408.038" xlink:href="#m5a15f31dd4" y="495.16"/>
      </g>
     </g>
     <g id="text_25">
      <!-- 0.8 -->
      <g transform="translate(400.086437 509.758438)scale(0.1 -0.1)">
       <use xlink:href="#DejaVuSans-48"/>
       <use x="63.623047" xlink:href="#DejaVuSans-46"/>
       <use x="95.410156" xlink:href="#DejaVuSans-56"/>
      </g>
     </g>
    </g>
    <g id="xtick_17">
     <g id="line2d_50">
      <path clip-path="url(#pf53c4ca752)" d="M 464.659 495.16 
L 464.659 275.4 
" style="fill:none;stroke:#b0b0b0;stroke-linecap:square;stroke-width:0.8;"/>
     </g>
     <g id="line2d_51">
      <g>
       <use style="stroke:#000000;stroke-width:0.8;" x="464.659" xlink:href="#m5a15f31dd4" y="495.16"/>
      </g>
     </g>
     <g id="text_26">
      <!-- 0.9 -->
      <g transform="translate(456.707437 509.758438)scale(0.1 -0.1)">
       <use xlink:href="#DejaVuSans-48"/>
       <use x="63.623047" xlink:href="#DejaVuSans-46"/>
       <use x="95.410156" xlink:href="#DejaVuSans-57"/>
      </g>
     </g>
    </g>
    <g id="xtick_18">
     <g id="line2d_52">
      <path clip-path="url(#pf53c4ca752)" d="M 521.28 495.16 
L 521.28 275.4 
" style="fill:none;stroke:#b0b0b0;stroke-linecap:square;stroke-width:0.8;"/>
     </g>
     <g id="line2d_53">
      <g>
       <use style="stroke:#000000;stroke-width:0.8;" x="521.28" xlink:href="#m5a15f31dd4" y="495.16"/>
      </g>
     </g>
     <g id="text_27">
      <!-- 1.0 -->
      <g transform="translate(513.328437 509.758438)scale(0.1 -0.1)">
       <use xlink:href="#DejaVuSans-49"/>
       <use x="63.623047" xlink:href="#DejaVuSans-46"/>
       <use x="95.410156" xlink:href="#DejaVuSans-48"/>
      </g>
     </g>
    </g>
    <g id="text_28">
     <!-- $M$ in GeV -->
     <g transform="translate(267.856 524.95625)scale(0.12 -0.12)">
      <use transform="translate(0 0.015625)" xlink:href="#DejaVuSans-Oblique-77"/>
      <use transform="translate(86.279297 0.015625)" xlink:href="#DejaVuSans-32"/>
      <use transform="translate(118.066406 0.015625)" xlink:href="#DejaVuSans-105"/>
      <use transform="translate(145.849609 0.015625)" xlink:href="#DejaVuSans-110"/>
      <use transform="translate(209.228516 0.015625)" xlink:href="#DejaVuSans-32"/>
      <use transform="translate(241.015625 0.015625)" xlink:href="#DejaVuSans-71"/>
      <use transform="translate(318.505859 0.015625)" xlink:href="#DejaVuSans-101"/>
      <use transform="translate(380.029297 0.015625)" xlink:href="#DejaVuSans-86"/>
     </g>
    </g>
   </g>
   <g id="matplotlib.axis_4">
    <g id="ytick_5">
     <g id="line2d_54">
      <path clip-path="url(#pf53c4ca752)" d="M 68.312 487.291277 
L 521.28 487.291277 
" style="fill:none;stroke:#b0b0b0;stroke-linecap:square;stroke-width:0.8;"/>
     </g>
     <g id="line2d_55">
      <g>
       <use style="stroke:#000000;stroke-width:0.8;" x="68.312" xlink:href="#mb3ce3bdbe2" y="487.291277"/>
      </g>
     </g>
     <g id="text_29">
      <!-- 0.000 -->
      <g transform="translate(32.683875 491.090496)scale(0.1 -0.1)">
       <use xlink:href="#DejaVuSans-48"/>
       <use x="63.623047" xlink:href="#DejaVuSans-46"/>
       <use x="95.410156" xlink:href="#DejaVuSans-48"/>
       <use x="159.033203" xlink:href="#DejaVuSans-48"/>
       <use x="222.65625" xlink:href="#DejaVuSans-48"/>
      </g>
     </g>
    </g>
    <g id="ytick_6">
     <g id="line2d_56">
      <path clip-path="url(#pf53c4ca752)" d="M 68.312 406.344206 
L 521.28 406.344206 
" style="fill:none;stroke:#b0b0b0;stroke-linecap:square;stroke-width:0.8;"/>
     </g>
     <g id="line2d_57">
      <g>
       <use style="stroke:#000000;stroke-width:0.8;" x="68.312" xlink:href="#mb3ce3bdbe2" y="406.344206"/>
      </g>
     </g>
     <g id="text_30">
      <!-- 0.005 -->
      <g transform="translate(32.683875 410.143425)scale(0.1 -0.1)">
       <use xlink:href="#DejaVuSans-48"/>
       <use x="63.623047" xlink:href="#DejaVuSans-46"/>
       <use x="95.410156" xlink:href="#DejaVuSans-48"/>
       <use x="159.033203" xlink:href="#DejaVuSans-48"/>
       <use x="222.65625" xlink:href="#DejaVuSans-53"/>
      </g>
     </g>
    </g>
    <g id="ytick_7">
     <g id="line2d_58">
      <path clip-path="url(#pf53c4ca752)" d="M 68.312 325.397136 
L 521.28 325.397136 
" style="fill:none;stroke:#b0b0b0;stroke-linecap:square;stroke-width:0.8;"/>
     </g>
     <g id="line2d_59">
      <g>
       <use style="stroke:#000000;stroke-width:0.8;" x="68.312" xlink:href="#mb3ce3bdbe2" y="325.397136"/>
      </g>
     </g>
     <g id="text_31">
      <!-- 0.010 -->
      <g transform="translate(32.683875 329.196355)scale(0.1 -0.1)">
       <use xlink:href="#DejaVuSans-48"/>
       <use x="63.623047" xlink:href="#DejaVuSans-46"/>
       <use x="95.410156" xlink:href="#DejaVuSans-48"/>
       <use x="159.033203" xlink:href="#DejaVuSans-49"/>
       <use x="222.65625" xlink:href="#DejaVuSans-48"/>
      </g>
     </g>
    </g>
    <g id="text_32">
     <!-- $\lambda_{H}^{4}$ in GeV$^4$ -->
     <g transform="translate(25.323875 416.78)rotate(-90)scale(0.12 -0.12)">
      <use transform="translate(0 0.684375)" xlink:href="#DejaVuSans-Oblique-955"/>
      <use transform="translate(66.627396 38.965625)scale(0.7)" xlink:href="#DejaVuSans-52"/>
      <use transform="translate(59.179688 -26.659375)scale(0.7)" xlink:href="#DejaVuSans-Oblique-72"/>
      <use transform="translate(114.550781 0.684375)" xlink:href="#DejaVuSans-32"/>
      <use transform="translate(146.337891 0.684375)" xlink:href="#DejaVuSans-105"/>
      <use transform="translate(174.121094 0.684375)" xlink:href="#DejaVuSans-110"/>
      <use transform="translate(237.5 0.684375)" xlink:href="#DejaVuSans-32"/>
      <use transform="translate(269.287109 0.684375)" xlink:href="#DejaVuSans-71"/>
      <use transform="translate(346.777344 0.684375)" xlink:href="#DejaVuSans-101"/>
      <use transform="translate(408.300781 0.684375)" xlink:href="#DejaVuSans-86"/>
      <use transform="translate(477.666016 38.965625)scale(0.7)" xlink:href="#DejaVuSans-52"/>
     </g>
    </g>
   </g>
   <g id="line2d_60">
    <path clip-path="url(#pf53c4ca752)" d="M 68.312 485.015266 
L 76.80515 485.159735 
L 90.9604 485.131832 
L 127.76405 484.739657 
L 198.5403 484.01264 
L 272.1476 483.502872 
L 368.4033 483.078996 
L 504.2937 482.721807 
L 521.28 482.688921 
L 521.28 482.688921 
" style="fill:none;stroke:#0000ff;stroke-dasharray:7.4,3.2;stroke-dashoffset:0;stroke-width:2;"/>
   </g>
   <g id="line2d_61">
    <path clip-path="url(#pf53c4ca752)" d="M 68.312 461.471482 
L 71.14305 462.758947 
L 73.9741 463.66274 
L 76.80515 464.304166 
L 79.6362 464.758949 
L 85.2983 465.291826 
L 90.9604 465.502906 
L 99.45355 465.47534 
L 110.77775 465.101507 
L 127.76405 464.245029 
L 181.554 461.363516 
L 209.8645 460.10734 
L 241.00605 458.950533 
L 274.97865 457.912196 
L 314.61335 456.931031 
L 359.91015 456.037278 
L 413.7001 455.203972 
L 478.81425 454.427144 
L 521.28 454.0191 
L 521.28 454.0191 
" style="fill:none;stroke:#008000;stroke-dasharray:7.4,3.2;stroke-dashoffset:0;stroke-width:2;"/>
   </g>
   <g id="line2d_62">
    <path clip-path="url(#pf53c4ca752)" d="M 68.312 430.033004 
L 71.14305 433.490005 
L 73.9741 436.013551 
L 76.80515 437.898386 
L 79.6362 439.328318 
L 82.46725 440.423921 
L 85.2983 441.267569 
L 88.12935 441.917438 
L 90.9604 442.415768 
L 96.6225 443.075795 
L 102.2846 443.419883 
L 107.9467 443.552804 
L 116.43985 443.496475 
L 127.76405 443.142163 
L 144.75035 442.3368 
L 207.03345 439.16497 
L 238.175 437.88224 
L 272.1476 436.726469 
L 308.95125 435.707689 
L 351.417 434.763649 
L 402.3759 433.87191 
L 461.82795 433.067589 
L 521.28 432.441513 
L 521.28 432.441513 
" style="fill:none;stroke:#ff0000;stroke-dasharray:7.4,3.2;stroke-dashoffset:0;stroke-width:2;"/>
   </g>
   <g id="line2d_63">
    <path clip-path="url(#pf53c4ca752)" d="M 68.312 349.070565 
L 71.14305 359.386607 
L 73.9741 367.146883 
L 76.80515 373.155437 
L 79.6362 377.913329 
L 82.46725 381.748984 
L 85.2983 384.886571 
L 88.12935 387.484262 
L 90.9604 389.656799 
L 93.79145 391.48939 
L 96.6225 393.04659 
L 99.45355 394.378165 
L 102.2846 395.523061 
L 105.11565 396.512163 
L 110.77775 398.117425 
L 116.43985 399.341913 
L 122.10195 400.286069 
L 127.76405 401.020118 
L 136.2572 401.833438 
L 144.75035 402.400997 
L 156.07455 402.902283 
L 170.2298 403.268126 
L 190.04715 403.505439 
L 218.35765 403.580105 
L 274.97865 403.444988 
L 430.6864 403.041496 
L 521.28 402.922106 
L 521.28 402.922106 
" style="fill:none;stroke:#800080;stroke-dasharray:7.4,3.2;stroke-dashoffset:0;stroke-width:2;"/>
   </g>
   <g id="line2d_64">
    <path clip-path="url(#pf53c4ca752)" d="M 68.312 466.953364 
L 71.14305 468.841687 
L 73.9741 470.289144 
L 76.80515 471.433662 
L 79.6362 472.361184 
L 82.46725 473.128033 
L 88.12935 474.32218 
L 93.79145 475.209628 
L 99.45355 475.895783 
L 107.9467 476.677083 
L 119.2709 477.427093 
L 133.42615 478.087687 
L 150.41245 478.646507 
L 173.06085 479.167505 
L 204.2024 479.654608 
L 249.4992 480.117169 
L 314.61335 480.531529 
L 408.038 480.886436 
L 521.28 481.142725 
L 521.28 481.142725 
" style="fill:none;stroke:#ffa500;stroke-dasharray:7.4,3.2;stroke-dashoffset:0;stroke-width:2;"/>
   </g>
   <g id="line2d_65">
    <path clip-path="url(#pf53c4ca752)" d="M 68.312 285.389091 
L 71.14305 308.369246 
L 73.9741 326.109395 
L 76.80515 340.240549 
L 79.6362 351.779368 
L 82.46725 361.392532 
L 85.2983 369.535417 
L 88.12935 376.529686 
L 90.9604 382.609021 
L 93.79145 387.947306 
L 96.6225 392.676615 
L 99.45355 396.899085 
L 102.2846 400.694961 
L 105.11565 404.128172 
L 107.9467 407.250294 
L 110.77775 410.103407 
L 113.6088 412.722191 
L 116.43985 415.135498 
L 119.2709 417.36753 
L 122.10195 419.438748 
L 127.76405 423.165948 
L 133.42615 426.429117 
L 139.08825 429.312369 
L 144.75035 431.880183 
L 150.41245 434.182885 
L 156.07455 436.260382 
L 161.73665 438.144763 
L 170.2298 440.665115 
L 178.72295 442.878442 
L 187.2161 444.837974 
L 195.70925 446.585107 
L 207.03345 448.639823 
L 218.35765 450.43478 
L 229.68185 452.015954 
L 243.8371 453.745383 
L 257.99235 455.249597 
L 274.97865 456.813998 
L 291.96495 458.165496 
L 311.7823 459.52598 
L 334.4307 460.852906 
L 359.91015 462.116683 
L 388.22065 463.298972 
L 422.19325 464.480504 
L 458.9969 465.538086 
L 504.2937 466.602472 
L 521.28 466.948223 
L 521.28 466.948223 
" style="fill:none;stroke:#000000;stroke-dasharray:7.4,3.2;stroke-dashoffset:0;stroke-width:2;"/>
   </g>
   <g id="patch_10">
    <path d="M 68.312 495.16 
L 68.312 275.4 
" style="fill:none;stroke:#000000;stroke-linecap:square;stroke-linejoin:miter;stroke-width:0.8;"/>
   </g>
   <g id="patch_11">
    <path d="M 521.28 495.16 
L 521.28 275.4 
" style="fill:none;stroke:#000000;stroke-linecap:square;stroke-linejoin:miter;stroke-width:0.8;"/>
   </g>
   <g id="patch_12">
    <path d="M 68.312 495.16 
L 521.28 495.16 
" style="fill:none;stroke:#000000;stroke-linecap:square;stroke-linejoin:miter;stroke-width:0.8;"/>
   </g>
   <g id="patch_13">
    <path d="M 68.312 275.4 
L 521.28 275.4 
" style="fill:none;stroke:#000000;stroke-linecap:square;stroke-linejoin:miter;stroke-width:0.8;"/>
   </g>
   <g id="legend_2">
    <g id="patch_14">
     <path d="M 401.80625 392.6825 
L 514.88 392.6825 
Q 517.28 392.6825 517.28 390.2825 
L 517.28 285.8 
Q 517.28 283.4 514.88 283.4 
L 401.80625 283.4 
Q 399.40625 283.4 399.40625 285.8 
L 399.40625 390.2825 
Q 399.40625 392.6825 401.80625 392.6825 
z
" style="fill:#4c4c4c;opacity:0.5;stroke:#4c4c4c;stroke-linejoin:miter;"/>
    </g>
    <g id="patch_15">
     <path d="M 399.80625 390.6825 
L 512.88 390.6825 
Q 515.28 390.6825 515.28 388.2825 
L 515.28 283.8 
Q 515.28 281.4 512.88 281.4 
L 399.80625 281.4 
Q 397.40625 281.4 397.40625 283.8 
L 397.40625 388.2825 
Q 397.40625 390.6825 399.80625 390.6825 
z
" style="fill:#ffffff;stroke:#cccccc;stroke-linejoin:miter;"/>
    </g>
    <g id="line2d_66">
     <path d="M 402.20625 291.118125 
L 426.20625 291.118125 
" style="fill:none;stroke:#0000ff;stroke-dasharray:7.4,3.2;stroke-dashoffset:0;stroke-width:2;"/>
    </g>
    <g id="line2d_67"/>
    <g id="text_33">
     <!-- perturbative -->
     <defs>
      <path d="M 18.109375 8.203125 
L 18.109375 -20.796875 
L 9.078125 -20.796875 
L 9.078125 54.6875 
L 18.109375 54.6875 
L 18.109375 46.390625 
Q 20.953125 51.265625 25.265625 53.625 
Q 29.59375 56 35.59375 56 
Q 45.5625 56 51.78125 48.09375 
Q 58.015625 40.1875 58.015625 27.296875 
Q 58.015625 14.40625 51.78125 6.484375 
Q 45.5625 -1.421875 35.59375 -1.421875 
Q 29.59375 -1.421875 25.265625 0.953125 
Q 20.953125 3.328125 18.109375 8.203125 
z
M 48.6875 27.296875 
Q 48.6875 37.203125 44.609375 42.84375 
Q 40.53125 48.484375 33.40625 48.484375 
Q 26.265625 48.484375 22.1875 42.84375 
Q 18.109375 37.203125 18.109375 27.296875 
Q 18.109375 17.390625 22.1875 11.75 
Q 26.265625 6.109375 33.40625 6.109375 
Q 40.53125 6.109375 44.609375 11.75 
Q 48.6875 17.390625 48.6875 27.296875 
z
" id="DejaVuSans-112"/>
      <path d="M 18.3125 70.21875 
L 18.3125 54.6875 
L 36.8125 54.6875 
L 36.8125 47.703125 
L 18.3125 47.703125 
L 18.3125 18.015625 
Q 18.3125 11.328125 20.140625 9.421875 
Q 21.96875 7.515625 27.59375 7.515625 
L 36.8125 7.515625 
L 36.8125 0 
L 27.59375 0 
Q 17.1875 0 13.234375 3.875 
Q 9.28125 7.765625 9.28125 18.015625 
L 9.28125 47.703125 
L 2.6875 47.703125 
L 2.6875 54.6875 
L 9.28125 54.6875 
L 9.28125 70.21875 
z
" id="DejaVuSans-116"/>
      <path d="M 8.5 21.578125 
L 8.5 54.6875 
L 17.484375 54.6875 
L 17.484375 21.921875 
Q 17.484375 14.15625 20.5 10.265625 
Q 23.53125 6.390625 29.59375 6.390625 
Q 36.859375 6.390625 41.078125 11.03125 
Q 45.3125 15.671875 45.3125 23.6875 
L 45.3125 54.6875 
L 54.296875 54.6875 
L 54.296875 0 
L 45.3125 0 
L 45.3125 8.40625 
Q 42.046875 3.421875 37.71875 1 
Q 33.40625 -1.421875 27.6875 -1.421875 
Q 18.265625 -1.421875 13.375 4.4375 
Q 8.5 10.296875 8.5 21.578125 
z
M 31.109375 56 
z
" id="DejaVuSans-117"/>
      <path d="M 48.6875 27.296875 
Q 48.6875 37.203125 44.609375 42.84375 
Q 40.53125 48.484375 33.40625 48.484375 
Q 26.265625 48.484375 22.1875 42.84375 
Q 18.109375 37.203125 18.109375 27.296875 
Q 18.109375 17.390625 22.1875 11.75 
Q 26.265625 6.109375 33.40625 6.109375 
Q 40.53125 6.109375 44.609375 11.75 
Q 48.6875 17.390625 48.6875 27.296875 
z
M 18.109375 46.390625 
Q 20.953125 51.265625 25.265625 53.625 
Q 29.59375 56 35.59375 56 
Q 45.5625 56 51.78125 48.09375 
Q 58.015625 40.1875 58.015625 27.296875 
Q 58.015625 14.40625 51.78125 6.484375 
Q 45.5625 -1.421875 35.59375 -1.421875 
Q 29.59375 -1.421875 25.265625 0.953125 
Q 20.953125 3.328125 18.109375 8.203125 
L 18.109375 0 
L 9.078125 0 
L 9.078125 75.984375 
L 18.109375 75.984375 
z
" id="DejaVuSans-98"/>
      <path d="M 34.28125 27.484375 
Q 23.390625 27.484375 19.1875 25 
Q 14.984375 22.515625 14.984375 16.5 
Q 14.984375 11.71875 18.140625 8.90625 
Q 21.296875 6.109375 26.703125 6.109375 
Q 34.1875 6.109375 38.703125 11.40625 
Q 43.21875 16.703125 43.21875 25.484375 
L 43.21875 27.484375 
z
M 52.203125 31.203125 
L 52.203125 0 
L 43.21875 0 
L 43.21875 8.296875 
Q 40.140625 3.328125 35.546875 0.953125 
Q 30.953125 -1.421875 24.3125 -1.421875 
Q 15.921875 -1.421875 10.953125 3.296875 
Q 6 8.015625 6 15.921875 
Q 6 25.140625 12.171875 29.828125 
Q 18.359375 34.515625 30.609375 34.515625 
L 43.21875 34.515625 
L 43.21875 35.40625 
Q 43.21875 41.609375 39.140625 45 
Q 35.0625 48.390625 27.6875 48.390625 
Q 23 48.390625 18.546875 47.265625 
Q 14.109375 46.140625 10.015625 43.890625 
L 10.015625 52.203125 
Q 14.9375 54.109375 19.578125 55.046875 
Q 24.21875 56 28.609375 56 
Q 40.484375 56 46.34375 49.84375 
Q 52.203125 43.703125 52.203125 31.203125 
z
" id="DejaVuSans-97"/>
      <path d="M 2.984375 54.6875 
L 12.5 54.6875 
L 29.59375 8.796875 
L 46.6875 54.6875 
L 56.203125 54.6875 
L 35.6875 0 
L 23.484375 0 
z
" id="DejaVuSans-118"/>
     </defs>
     <g transform="translate(435.80625 295.318125)scale(0.12 -0.12)">
      <use xlink:href="#DejaVuSans-112"/>
      <use x="63.476562" xlink:href="#DejaVuSans-101"/>
      <use x="125" xlink:href="#DejaVuSans-114"/>
      <use x="166.113281" xlink:href="#DejaVuSans-116"/>
      <use x="205.322266" xlink:href="#DejaVuSans-117"/>
      <use x="268.701172" xlink:href="#DejaVuSans-114"/>
      <use x="309.814453" xlink:href="#DejaVuSans-98"/>
      <use x="373.291016" xlink:href="#DejaVuSans-97"/>
      <use x="434.570312" xlink:href="#DejaVuSans-116"/>
      <use x="473.779297" xlink:href="#DejaVuSans-105"/>
      <use x="501.5625" xlink:href="#DejaVuSans-118"/>
      <use x="560.742188" xlink:href="#DejaVuSans-101"/>
     </g>
    </g>
    <g id="line2d_68">
     <path d="M 402.20625 308.731875 
L 426.20625 308.731875 
" style="fill:none;stroke:#008000;stroke-dasharray:7.4,3.2;stroke-dashoffset:0;stroke-width:2;"/>
    </g>
    <g id="line2d_69"/>
    <g id="text_34">
     <!-- dimension 3 -->
     <defs>
      <path d="M 45.40625 46.390625 
L 45.40625 75.984375 
L 54.390625 75.984375 
L 54.390625 0 
L 45.40625 0 
L 45.40625 8.203125 
Q 42.578125 3.328125 38.25 0.953125 
Q 33.9375 -1.421875 27.875 -1.421875 
Q 17.96875 -1.421875 11.734375 6.484375 
Q 5.515625 14.40625 5.515625 27.296875 
Q 5.515625 40.1875 11.734375 48.09375 
Q 17.96875 56 27.875 56 
Q 33.9375 56 38.25 53.625 
Q 42.578125 51.265625 45.40625 46.390625 
z
M 14.796875 27.296875 
Q 14.796875 17.390625 18.875 11.75 
Q 22.953125 6.109375 30.078125 6.109375 
Q 37.203125 6.109375 41.296875 11.75 
Q 45.40625 17.390625 45.40625 27.296875 
Q 45.40625 37.203125 41.296875 42.84375 
Q 37.203125 48.484375 30.078125 48.484375 
Q 22.953125 48.484375 18.875 42.84375 
Q 14.796875 37.203125 14.796875 27.296875 
z
" id="DejaVuSans-100"/>
      <path d="M 52 44.1875 
Q 55.375 50.25 60.0625 53.125 
Q 64.75 56 71.09375 56 
Q 79.640625 56 84.28125 50.015625 
Q 88.921875 44.046875 88.921875 33.015625 
L 88.921875 0 
L 79.890625 0 
L 79.890625 32.71875 
Q 79.890625 40.578125 77.09375 44.375 
Q 74.3125 48.1875 68.609375 48.1875 
Q 61.625 48.1875 57.5625 43.546875 
Q 53.515625 38.921875 53.515625 30.90625 
L 53.515625 0 
L 44.484375 0 
L 44.484375 32.71875 
Q 44.484375 40.625 41.703125 44.40625 
Q 38.921875 48.1875 33.109375 48.1875 
Q 26.21875 48.1875 22.15625 43.53125 
Q 18.109375 38.875 18.109375 30.90625 
L 18.109375 0 
L 9.078125 0 
L 9.078125 54.6875 
L 18.109375 54.6875 
L 18.109375 46.1875 
Q 21.1875 51.21875 25.484375 53.609375 
Q 29.78125 56 35.6875 56 
Q 41.65625 56 45.828125 52.96875 
Q 50 49.953125 52 44.1875 
z
" id="DejaVuSans-109"/>
      <path d="M 44.28125 53.078125 
L 44.28125 44.578125 
Q 40.484375 46.53125 36.375 47.5 
Q 32.28125 48.484375 27.875 48.484375 
Q 21.1875 48.484375 17.84375 46.4375 
Q 14.5 44.390625 14.5 40.28125 
Q 14.5 37.15625 16.890625 35.375 
Q 19.28125 33.59375 26.515625 31.984375 
L 29.59375 31.296875 
Q 39.15625 29.25 43.1875 25.515625 
Q 47.21875 21.78125 47.21875 15.09375 
Q 47.21875 7.46875 41.1875 3.015625 
Q 35.15625 -1.421875 24.609375 -1.421875 
Q 20.21875 -1.421875 15.453125 -0.5625 
Q 10.6875 0.296875 5.421875 2 
L 5.421875 11.28125 
Q 10.40625 8.6875 15.234375 7.390625 
Q 20.0625 6.109375 24.8125 6.109375 
Q 31.15625 6.109375 34.5625 8.28125 
Q 37.984375 10.453125 37.984375 14.40625 
Q 37.984375 18.0625 35.515625 20.015625 
Q 33.0625 21.96875 24.703125 23.78125 
L 21.578125 24.515625 
Q 13.234375 26.265625 9.515625 29.90625 
Q 5.8125 33.546875 5.8125 39.890625 
Q 5.8125 47.609375 11.28125 51.796875 
Q 16.75 56 26.8125 56 
Q 31.78125 56 36.171875 55.265625 
Q 40.578125 54.546875 44.28125 53.078125 
z
" id="DejaVuSans-115"/>
     </defs>
     <g transform="translate(435.80625 312.931875)scale(0.12 -0.12)">
      <use xlink:href="#DejaVuSans-100"/>
      <use x="63.476562" xlink:href="#DejaVuSans-105"/>
      <use x="91.259766" xlink:href="#DejaVuSans-109"/>
      <use x="188.671875" xlink:href="#DejaVuSans-101"/>
      <use x="250.195312" xlink:href="#DejaVuSans-110"/>
      <use x="313.574219" xlink:href="#DejaVuSans-115"/>
      <use x="365.673828" xlink:href="#DejaVuSans-105"/>
      <use x="393.457031" xlink:href="#DejaVuSans-111"/>
      <use x="454.638672" xlink:href="#DejaVuSans-110"/>
      <use x="518.017578" xlink:href="#DejaVuSans-32"/>
      <use x="549.804688" xlink:href="#DejaVuSans-51"/>
     </g>
    </g>
    <g id="line2d_70">
     <path d="M 402.20625 326.345625 
L 426.20625 326.345625 
" style="fill:none;stroke:#ff0000;stroke-dasharray:7.4,3.2;stroke-dashoffset:0;stroke-width:2;"/>
    </g>
    <g id="line2d_71"/>
    <g id="text_35">
     <!-- dimension 4 -->
     <g transform="translate(435.80625 330.545625)scale(0.12 -0.12)">
      <use xlink:href="#DejaVuSans-100"/>
      <use x="63.476562" xlink:href="#DejaVuSans-105"/>
      <use x="91.259766" xlink:href="#DejaVuSans-109"/>
      <use x="188.671875" xlink:href="#DejaVuSans-101"/>
      <use x="250.195312" xlink:href="#DejaVuSans-110"/>
      <use x="313.574219" xlink:href="#DejaVuSans-115"/>
      <use x="365.673828" xlink:href="#DejaVuSans-105"/>
      <use x="393.457031" xlink:href="#DejaVuSans-111"/>
      <use x="454.638672" xlink:href="#DejaVuSans-110"/>
      <use x="518.017578" xlink:href="#DejaVuSans-32"/>
      <use x="549.804688" xlink:href="#DejaVuSans-52"/>
     </g>
    </g>
    <g id="line2d_72">
     <path d="M 402.20625 343.959375 
L 426.20625 343.959375 
" style="fill:none;stroke:#800080;stroke-dasharray:7.4,3.2;stroke-dashoffset:0;stroke-width:2;"/>
    </g>
    <g id="line2d_73"/>
    <g id="text_36">
     <!-- dimension 5 -->
     <g transform="translate(435.80625 348.159375)scale(0.12 -0.12)">
      <use xlink:href="#DejaVuSans-100"/>
      <use x="63.476562" xlink:href="#DejaVuSans-105"/>
      <use x="91.259766" xlink:href="#DejaVuSans-109"/>
      <use x="188.671875" xlink:href="#DejaVuSans-101"/>
      <use x="250.195312" xlink:href="#DejaVuSans-110"/>
      <use x="313.574219" xlink:href="#DejaVuSans-115"/>
      <use x="365.673828" xlink:href="#DejaVuSans-105"/>
      <use x="393.457031" xlink:href="#DejaVuSans-111"/>
      <use x="454.638672" xlink:href="#DejaVuSans-110"/>
      <use x="518.017578" xlink:href="#DejaVuSans-32"/>
      <use x="549.804688" xlink:href="#DejaVuSans-53"/>
     </g>
    </g>
    <g id="line2d_74">
     <path d="M 402.20625 361.573125 
L 426.20625 361.573125 
" style="fill:none;stroke:#ffa500;stroke-dasharray:7.4,3.2;stroke-dashoffset:0;stroke-width:2;"/>
    </g>
    <g id="line2d_75"/>
    <g id="text_37">
     <!-- dimension 6 -->
     <g transform="translate(435.80625 365.773125)scale(0.12 -0.12)">
      <use xlink:href="#DejaVuSans-100"/>
      <use x="63.476562" xlink:href="#DejaVuSans-105"/>
      <use x="91.259766" xlink:href="#DejaVuSans-109"/>
      <use x="188.671875" xlink:href="#DejaVuSans-101"/>
      <use x="250.195312" xlink:href="#DejaVuSans-110"/>
      <use x="313.574219" xlink:href="#DejaVuSans-115"/>
      <use x="365.673828" xlink:href="#DejaVuSans-105"/>
      <use x="393.457031" xlink:href="#DejaVuSans-111"/>
      <use x="454.638672" xlink:href="#DejaVuSans-110"/>
      <use x="518.017578" xlink:href="#DejaVuSans-32"/>
      <use x="549.804688" xlink:href="#DejaVuSans-54"/>
     </g>
    </g>
    <g id="line2d_76">
     <path d="M 402.20625 379.186875 
L 426.20625 379.186875 
" style="fill:none;stroke:#000000;stroke-dasharray:7.4,3.2;stroke-dashoffset:0;stroke-width:2;"/>
    </g>
    <g id="line2d_77"/>
    <g id="text_38">
     <!-- dimension 7 -->
     <g transform="translate(435.80625 383.386875)scale(0.12 -0.12)">
      <use xlink:href="#DejaVuSans-100"/>
      <use x="63.476562" xlink:href="#DejaVuSans-105"/>
      <use x="91.259766" xlink:href="#DejaVuSans-109"/>
      <use x="188.671875" xlink:href="#DejaVuSans-101"/>
      <use x="250.195312" xlink:href="#DejaVuSans-110"/>
      <use x="313.574219" xlink:href="#DejaVuSans-115"/>
      <use x="365.673828" xlink:href="#DejaVuSans-105"/>
      <use x="393.457031" xlink:href="#DejaVuSans-111"/>
      <use x="454.638672" xlink:href="#DejaVuSans-110"/>
      <use x="518.017578" xlink:href="#DejaVuSans-32"/>
      <use x="549.804688" xlink:href="#DejaVuSans-55"/>
     </g>
    </g>
   </g>
  </g>
 </g>
 <defs>
  <clipPath id="p9d57f392b0">
   <rect height="219.76" width="452.968" x="68.312" y="10.8"/>
  </clipPath>
  <clipPath id="pf53c4ca752">
   <rect height="219.76" width="452.968" x="68.312" y="275.4"/>
  </clipPath>
 </defs>
</svg>
