<?xml version="1.0" encoding="utf-8" standalone="no"?>
<!DOCTYPE svg PUBLIC "-//W3C//DTD SVG 1.1//EN"
  "http://www.w3.org/Graphics/SVG/1.1/DTD/svg11.dtd">
<!-- Created with matplotlib (https://matplotlib.org/) -->
<svg height="540pt" version="1.1" viewBox="0 0 540 540" width="540pt" xmlns="http://www.w3.org/2000/svg" xmlns:xlink="http://www.w3.org/1999/xlink">
 <defs>
  <style type="text/css">
*{stroke-linecap:butt;stroke-linejoin:round;}
  </style>
 </defs>
 <g id="figure_1">
  <g id="patch_1">
   <path d="M 0 540 
L 540 540 
L 540 0 
L 0 0 
z
" style="fill:#ffffff;"/>
  </g>
  <g id="axes_1">
   <g id="patch_2">
    <path d="M 67.898 232 
L 521.28 232 
L 521.28 13.32 
L 67.898 13.32 
z
" style="fill:#ffffff;"/>
   </g>
   <g id="matplotlib.axis_1">
    <g id="xtick_1">
     <g id="line2d_1">
      <path clip-path="url(#p7a78430a5c)" d="M 67.898 232 
L 67.898 13.32 
" style="fill:none;stroke:#b0b0b0;stroke-linecap:square;stroke-width:0.8;"/>
     </g>
     <g id="line2d_2">
      <defs>
       <path d="M 0 0 
L 0 3.5 
" id="m26213c88c6" style="stroke:#000000;stroke-width:0.8;"/>
      </defs>
      <g>
       <use style="stroke:#000000;stroke-width:0.8;" x="67.898" xlink:href="#m26213c88c6" y="232"/>
      </g>
     </g>
     <g id="text_1">
      <!-- 0.2 -->
      <defs>
       <path d="M 31.78125 66.40625 
Q 24.171875 66.40625 20.328125 58.90625 
Q 16.5 51.421875 16.5 36.375 
Q 16.5 21.390625 20.328125 13.890625 
Q 24.171875 6.390625 31.78125 6.390625 
Q 39.453125 6.390625 43.28125 13.890625 
Q 47.125 21.390625 47.125 36.375 
Q 47.125 51.421875 43.28125 58.90625 
Q 39.453125 66.40625 31.78125 66.40625 
z
M 31.78125 74.21875 
Q 44.046875 74.21875 50.515625 64.515625 
Q 56.984375 54.828125 56.984375 36.375 
Q 56.984375 17.96875 50.515625 8.265625 
Q 44.046875 -1.421875 31.78125 -1.421875 
Q 19.53125 -1.421875 13.0625 8.265625 
Q 6.59375 17.96875 6.59375 36.375 
Q 6.59375 54.828125 13.0625 64.515625 
Q 19.53125 74.21875 31.78125 74.21875 
z
" id="DejaVuSans-48"/>
       <path d="M 10.6875 12.40625 
L 21 12.40625 
L 21 0 
L 10.6875 0 
z
" id="DejaVuSans-46"/>
       <path d="M 19.1875 8.296875 
L 53.609375 8.296875 
L 53.609375 0 
L 7.328125 0 
L 7.328125 8.296875 
Q 12.9375 14.109375 22.625 23.890625 
Q 32.328125 33.6875 34.8125 36.53125 
Q 39.546875 41.84375 41.421875 45.53125 
Q 43.3125 49.21875 43.3125 52.78125 
Q 43.3125 58.59375 39.234375 62.25 
Q 35.15625 65.921875 28.609375 65.921875 
Q 23.96875 65.921875 18.8125 64.3125 
Q 13.671875 62.703125 7.8125 59.421875 
L 7.8125 69.390625 
Q 13.765625 71.78125 18.9375 73 
Q 24.125 74.21875 28.421875 74.21875 
Q 39.75 74.21875 46.484375 68.546875 
Q 53.21875 62.890625 53.21875 53.421875 
Q 53.21875 48.921875 51.53125 44.890625 
Q 49.859375 40.875 45.40625 35.40625 
Q 44.1875 33.984375 37.640625 27.21875 
Q 31.109375 20.453125 19.1875 8.296875 
z
" id="DejaVuSans-50"/>
      </defs>
      <g transform="translate(59.946438 246.598437)scale(0.1 -0.1)">
       <use xlink:href="#DejaVuSans-48"/>
       <use x="63.623047" xlink:href="#DejaVuSans-46"/>
       <use x="95.410156" xlink:href="#DejaVuSans-50"/>
      </g>
     </g>
    </g>
    <g id="xtick_2">
     <g id="line2d_3">
      <path clip-path="url(#p7a78430a5c)" d="M 124.57075 232 
L 124.57075 13.32 
" style="fill:none;stroke:#b0b0b0;stroke-linecap:square;stroke-width:0.8;"/>
     </g>
     <g id="line2d_4">
      <g>
       <use style="stroke:#000000;stroke-width:0.8;" x="124.57075" xlink:href="#m26213c88c6" y="232"/>
      </g>
     </g>
     <g id="text_2">
      <!-- 0.3 -->
      <defs>
       <path d="M 40.578125 39.3125 
Q 47.65625 37.796875 51.625 33 
Q 55.609375 28.21875 55.609375 21.1875 
Q 55.609375 10.40625 48.1875 4.484375 
Q 40.765625 -1.421875 27.09375 -1.421875 
Q 22.515625 -1.421875 17.65625 -0.515625 
Q 12.796875 0.390625 7.625 2.203125 
L 7.625 11.71875 
Q 11.71875 9.328125 16.59375 8.109375 
Q 21.484375 6.890625 26.8125 6.890625 
Q 36.078125 6.890625 40.9375 10.546875 
Q 45.796875 14.203125 45.796875 21.1875 
Q 45.796875 27.640625 41.28125 31.265625 
Q 36.765625 34.90625 28.71875 34.90625 
L 20.21875 34.90625 
L 20.21875 43.015625 
L 29.109375 43.015625 
Q 36.375 43.015625 40.234375 45.921875 
Q 44.09375 48.828125 44.09375 54.296875 
Q 44.09375 59.90625 40.109375 62.90625 
Q 36.140625 65.921875 28.71875 65.921875 
Q 24.65625 65.921875 20.015625 65.03125 
Q 15.375 64.15625 9.8125 62.3125 
L 9.8125 71.09375 
Q 15.4375 72.65625 20.34375 73.4375 
Q 25.25 74.21875 29.59375 74.21875 
Q 40.828125 74.21875 47.359375 69.109375 
Q 53.90625 64.015625 53.90625 55.328125 
Q 53.90625 49.265625 50.4375 45.09375 
Q 46.96875 40.921875 40.578125 39.3125 
z
" id="DejaVuSans-51"/>
      </defs>
      <g transform="translate(116.619188 246.598437)scale(0.1 -0.1)">
       <use xlink:href="#DejaVuSans-48"/>
       <use x="63.623047" xlink:href="#DejaVuSans-46"/>
       <use x="95.410156" xlink:href="#DejaVuSans-51"/>
      </g>
     </g>
    </g>
    <g id="xtick_3">
     <g id="line2d_5">
      <path clip-path="url(#p7a78430a5c)" d="M 181.2435 232 
L 181.2435 13.32 
" style="fill:none;stroke:#b0b0b0;stroke-linecap:square;stroke-width:0.8;"/>
     </g>
     <g id="line2d_6">
      <g>
       <use style="stroke:#000000;stroke-width:0.8;" x="181.2435" xlink:href="#m26213c88c6" y="232"/>
      </g>
     </g>
     <g id="text_3">
      <!-- 0.4 -->
      <defs>
       <path d="M 37.796875 64.3125 
L 12.890625 25.390625 
L 37.796875 25.390625 
z
M 35.203125 72.90625 
L 47.609375 72.90625 
L 47.609375 25.390625 
L 58.015625 25.390625 
L 58.015625 17.1875 
L 47.609375 17.1875 
L 47.609375 0 
L 37.796875 0 
L 37.796875 17.1875 
L 4.890625 17.1875 
L 4.890625 26.703125 
z
" id="DejaVuSans-52"/>
      </defs>
      <g transform="translate(173.291938 246.598437)scale(0.1 -0.1)">
       <use xlink:href="#DejaVuSans-48"/>
       <use x="63.623047" xlink:href="#DejaVuSans-46"/>
       <use x="95.410156" xlink:href="#DejaVuSans-52"/>
      </g>
     </g>
    </g>
    <g id="xtick_4">
     <g id="line2d_7">
      <path clip-path="url(#p7a78430a5c)" d="M 237.91625 232 
L 237.91625 13.32 
" style="fill:none;stroke:#b0b0b0;stroke-linecap:square;stroke-width:0.8;"/>
     </g>
     <g id="line2d_8">
      <g>
       <use style="stroke:#000000;stroke-width:0.8;" x="237.91625" xlink:href="#m26213c88c6" y="232"/>
      </g>
     </g>
     <g id="text_4">
      <!-- 0.5 -->
      <defs>
       <path d="M 10.796875 72.90625 
L 49.515625 72.90625 
L 49.515625 64.59375 
L 19.828125 64.59375 
L 19.828125 46.734375 
Q 21.96875 47.46875 24.109375 47.828125 
Q 26.265625 48.1875 28.421875 48.1875 
Q 40.625 48.1875 47.75 41.5 
Q 54.890625 34.8125 54.890625 23.390625 
Q 54.890625 11.625 47.5625 5.09375 
Q 40.234375 -1.421875 26.90625 -1.421875 
Q 22.3125 -1.421875 17.546875 -0.640625 
Q 12.796875 0.140625 7.71875 1.703125 
L 7.71875 11.625 
Q 12.109375 9.234375 16.796875 8.0625 
Q 21.484375 6.890625 26.703125 6.890625 
Q 35.15625 6.890625 40.078125 11.328125 
Q 45.015625 15.765625 45.015625 23.390625 
Q 45.015625 31 40.078125 35.4375 
Q 35.15625 39.890625 26.703125 39.890625 
Q 22.75 39.890625 18.8125 39.015625 
Q 14.890625 38.140625 10.796875 36.28125 
z
" id="DejaVuSans-53"/>
      </defs>
      <g transform="translate(229.964687 246.598437)scale(0.1 -0.1)">
       <use xlink:href="#DejaVuSans-48"/>
       <use x="63.623047" xlink:href="#DejaVuSans-46"/>
       <use x="95.410156" xlink:href="#DejaVuSans-53"/>
      </g>
     </g>
    </g>
    <g id="xtick_5">
     <g id="line2d_9">
      <path clip-path="url(#p7a78430a5c)" d="M 294.589 232 
L 294.589 13.32 
" style="fill:none;stroke:#b0b0b0;stroke-linecap:square;stroke-width:0.8;"/>
     </g>
     <g id="line2d_10">
      <g>
       <use style="stroke:#000000;stroke-width:0.8;" x="294.589" xlink:href="#m26213c88c6" y="232"/>
      </g>
     </g>
     <g id="text_5">
      <!-- 0.6 -->
      <defs>
       <path d="M 33.015625 40.375 
Q 26.375 40.375 22.484375 35.828125 
Q 18.609375 31.296875 18.609375 23.390625 
Q 18.609375 15.53125 22.484375 10.953125 
Q 26.375 6.390625 33.015625 6.390625 
Q 39.65625 6.390625 43.53125 10.953125 
Q 47.40625 15.53125 47.40625 23.390625 
Q 47.40625 31.296875 43.53125 35.828125 
Q 39.65625 40.375 33.015625 40.375 
z
M 52.59375 71.296875 
L 52.59375 62.3125 
Q 48.875 64.0625 45.09375 64.984375 
Q 41.3125 65.921875 37.59375 65.921875 
Q 27.828125 65.921875 22.671875 59.328125 
Q 17.53125 52.734375 16.796875 39.40625 
Q 19.671875 43.65625 24.015625 45.921875 
Q 28.375 48.1875 33.59375 48.1875 
Q 44.578125 48.1875 50.953125 41.515625 
Q 57.328125 34.859375 57.328125 23.390625 
Q 57.328125 12.15625 50.6875 5.359375 
Q 44.046875 -1.421875 33.015625 -1.421875 
Q 20.359375 -1.421875 13.671875 8.265625 
Q 6.984375 17.96875 6.984375 36.375 
Q 6.984375 53.65625 15.1875 63.9375 
Q 23.390625 74.21875 37.203125 74.21875 
Q 40.921875 74.21875 44.703125 73.484375 
Q 48.484375 72.75 52.59375 71.296875 
z
" id="DejaVuSans-54"/>
      </defs>
      <g transform="translate(286.637438 246.598437)scale(0.1 -0.1)">
       <use xlink:href="#DejaVuSans-48"/>
       <use x="63.623047" xlink:href="#DejaVuSans-46"/>
       <use x="95.410156" xlink:href="#DejaVuSans-54"/>
      </g>
     </g>
    </g>
    <g id="xtick_6">
     <g id="line2d_11">
      <path clip-path="url(#p7a78430a5c)" d="M 351.26175 232 
L 351.26175 13.32 
" style="fill:none;stroke:#b0b0b0;stroke-linecap:square;stroke-width:0.8;"/>
     </g>
     <g id="line2d_12">
      <g>
       <use style="stroke:#000000;stroke-width:0.8;" x="351.26175" xlink:href="#m26213c88c6" y="232"/>
      </g>
     </g>
     <g id="text_6">
      <!-- 0.7 -->
      <defs>
       <path d="M 8.203125 72.90625 
L 55.078125 72.90625 
L 55.078125 68.703125 
L 28.609375 0 
L 18.3125 0 
L 43.21875 64.59375 
L 8.203125 64.59375 
z
" id="DejaVuSans-55"/>
      </defs>
      <g transform="translate(343.310187 246.598437)scale(0.1 -0.1)">
       <use xlink:href="#DejaVuSans-48"/>
       <use x="63.623047" xlink:href="#DejaVuSans-46"/>
       <use x="95.410156" xlink:href="#DejaVuSans-55"/>
      </g>
     </g>
    </g>
    <g id="xtick_7">
     <g id="line2d_13">
      <path clip-path="url(#p7a78430a5c)" d="M 407.9345 232 
L 407.9345 13.32 
" style="fill:none;stroke:#b0b0b0;stroke-linecap:square;stroke-width:0.8;"/>
     </g>
     <g id="line2d_14">
      <g>
       <use style="stroke:#000000;stroke-width:0.8;" x="407.9345" xlink:href="#m26213c88c6" y="232"/>
      </g>
     </g>
     <g id="text_7">
      <!-- 0.8 -->
      <defs>
       <path d="M 31.78125 34.625 
Q 24.75 34.625 20.71875 30.859375 
Q 16.703125 27.09375 16.703125 20.515625 
Q 16.703125 13.921875 20.71875 10.15625 
Q 24.75 6.390625 31.78125 6.390625 
Q 38.8125 6.390625 42.859375 10.171875 
Q 46.921875 13.96875 46.921875 20.515625 
Q 46.921875 27.09375 42.890625 30.859375 
Q 38.875 34.625 31.78125 34.625 
z
M 21.921875 38.8125 
Q 15.578125 40.375 12.03125 44.71875 
Q 8.5 49.078125 8.5 55.328125 
Q 8.5 64.0625 14.71875 69.140625 
Q 20.953125 74.21875 31.78125 74.21875 
Q 42.671875 74.21875 48.875 69.140625 
Q 55.078125 64.0625 55.078125 55.328125 
Q 55.078125 49.078125 51.53125 44.71875 
Q 48 40.375 41.703125 38.8125 
Q 48.828125 37.15625 52.796875 32.3125 
Q 56.78125 27.484375 56.78125 20.515625 
Q 56.78125 9.90625 50.3125 4.234375 
Q 43.84375 -1.421875 31.78125 -1.421875 
Q 19.734375 -1.421875 13.25 4.234375 
Q 6.78125 9.90625 6.78125 20.515625 
Q 6.78125 27.484375 10.78125 32.3125 
Q 14.796875 37.15625 21.921875 38.8125 
z
M 18.3125 54.390625 
Q 18.3125 48.734375 21.84375 45.5625 
Q 25.390625 42.390625 31.78125 42.390625 
Q 38.140625 42.390625 41.71875 45.5625 
Q 45.3125 48.734375 45.3125 54.390625 
Q 45.3125 60.0625 41.71875 63.234375 
Q 38.140625 66.40625 31.78125 66.40625 
Q 25.390625 66.40625 21.84375 63.234375 
Q 18.3125 60.0625 18.3125 54.390625 
z
" id="DejaVuSans-56"/>
      </defs>
      <g transform="translate(399.982937 246.598437)scale(0.1 -0.1)">
       <use xlink:href="#DejaVuSans-48"/>
       <use x="63.623047" xlink:href="#DejaVuSans-46"/>
       <use x="95.410156" xlink:href="#DejaVuSans-56"/>
      </g>
     </g>
    </g>
    <g id="xtick_8">
     <g id="line2d_15">
      <path clip-path="url(#p7a78430a5c)" d="M 464.60725 232 
L 464.60725 13.32 
" style="fill:none;stroke:#b0b0b0;stroke-linecap:square;stroke-width:0.8;"/>
     </g>
     <g id="line2d_16">
      <g>
       <use style="stroke:#000000;stroke-width:0.8;" x="464.60725" xlink:href="#m26213c88c6" y="232"/>
      </g>
     </g>
     <g id="text_8">
      <!-- 0.9 -->
      <defs>
       <path d="M 10.984375 1.515625 
L 10.984375 10.5 
Q 14.703125 8.734375 18.5 7.8125 
Q 22.3125 6.890625 25.984375 6.890625 
Q 35.75 6.890625 40.890625 13.453125 
Q 46.046875 20.015625 46.78125 33.40625 
Q 43.953125 29.203125 39.59375 26.953125 
Q 35.25 24.703125 29.984375 24.703125 
Q 19.046875 24.703125 12.671875 31.3125 
Q 6.296875 37.9375 6.296875 49.421875 
Q 6.296875 60.640625 12.9375 67.421875 
Q 19.578125 74.21875 30.609375 74.21875 
Q 43.265625 74.21875 49.921875 64.515625 
Q 56.59375 54.828125 56.59375 36.375 
Q 56.59375 19.140625 48.40625 8.859375 
Q 40.234375 -1.421875 26.421875 -1.421875 
Q 22.703125 -1.421875 18.890625 -0.6875 
Q 15.09375 0.046875 10.984375 1.515625 
z
M 30.609375 32.421875 
Q 37.25 32.421875 41.125 36.953125 
Q 45.015625 41.5 45.015625 49.421875 
Q 45.015625 57.28125 41.125 61.84375 
Q 37.25 66.40625 30.609375 66.40625 
Q 23.96875 66.40625 20.09375 61.84375 
Q 16.21875 57.28125 16.21875 49.421875 
Q 16.21875 41.5 20.09375 36.953125 
Q 23.96875 32.421875 30.609375 32.421875 
z
" id="DejaVuSans-57"/>
      </defs>
      <g transform="translate(456.655688 246.598437)scale(0.1 -0.1)">
       <use xlink:href="#DejaVuSans-48"/>
       <use x="63.623047" xlink:href="#DejaVuSans-46"/>
       <use x="95.410156" xlink:href="#DejaVuSans-57"/>
      </g>
     </g>
    </g>
    <g id="xtick_9">
     <g id="line2d_17">
      <path clip-path="url(#p7a78430a5c)" d="M 521.28 232 
L 521.28 13.32 
" style="fill:none;stroke:#b0b0b0;stroke-linecap:square;stroke-width:0.8;"/>
     </g>
     <g id="line2d_18">
      <g>
       <use style="stroke:#000000;stroke-width:0.8;" x="521.28" xlink:href="#m26213c88c6" y="232"/>
      </g>
     </g>
     <g id="text_9">
      <!-- 1.0 -->
      <defs>
       <path d="M 12.40625 8.296875 
L 28.515625 8.296875 
L 28.515625 63.921875 
L 10.984375 60.40625 
L 10.984375 69.390625 
L 28.421875 72.90625 
L 38.28125 72.90625 
L 38.28125 8.296875 
L 54.390625 8.296875 
L 54.390625 0 
L 12.40625 0 
z
" id="DejaVuSans-49"/>
      </defs>
      <g transform="translate(513.328437 246.598437)scale(0.1 -0.1)">
       <use xlink:href="#DejaVuSans-49"/>
       <use x="63.623047" xlink:href="#DejaVuSans-46"/>
       <use x="95.410156" xlink:href="#DejaVuSans-48"/>
      </g>
     </g>
    </g>
    <g id="text_10">
     <!-- $M$ in GeV -->
     <defs>
      <path d="M 16.890625 72.90625 
L 31.6875 72.90625 
L 40.1875 23.78125 
L 68.40625 72.90625 
L 83.59375 72.90625 
L 69.390625 0 
L 59.8125 0 
L 72.21875 63.921875 
L 43.609375 14.015625 
L 33.984375 14.015625 
L 24.703125 64.109375 
L 12.3125 0 
L 2.6875 0 
z
" id="DejaVuSans-Oblique-77"/>
      <path id="DejaVuSans-32"/>
      <path d="M 9.421875 54.6875 
L 18.40625 54.6875 
L 18.40625 0 
L 9.421875 0 
z
M 9.421875 75.984375 
L 18.40625 75.984375 
L 18.40625 64.59375 
L 9.421875 64.59375 
z
" id="DejaVuSans-105"/>
      <path d="M 54.890625 33.015625 
L 54.890625 0 
L 45.90625 0 
L 45.90625 32.71875 
Q 45.90625 40.484375 42.875 44.328125 
Q 39.84375 48.1875 33.796875 48.1875 
Q 26.515625 48.1875 22.3125 43.546875 
Q 18.109375 38.921875 18.109375 30.90625 
L 18.109375 0 
L 9.078125 0 
L 9.078125 54.6875 
L 18.109375 54.6875 
L 18.109375 46.1875 
Q 21.34375 51.125 25.703125 53.5625 
Q 30.078125 56 35.796875 56 
Q 45.21875 56 50.046875 50.171875 
Q 54.890625 44.34375 54.890625 33.015625 
z
" id="DejaVuSans-110"/>
      <path d="M 59.515625 10.40625 
L 59.515625 29.984375 
L 43.40625 29.984375 
L 43.40625 38.09375 
L 69.28125 38.09375 
L 69.28125 6.78125 
Q 63.578125 2.734375 56.6875 0.65625 
Q 49.8125 -1.421875 42 -1.421875 
Q 24.90625 -1.421875 15.25 8.5625 
Q 5.609375 18.5625 5.609375 36.375 
Q 5.609375 54.25 15.25 64.234375 
Q 24.90625 74.21875 42 74.21875 
Q 49.125 74.21875 55.546875 72.453125 
Q 61.96875 70.703125 67.390625 67.28125 
L 67.390625 56.78125 
Q 61.921875 61.421875 55.765625 63.765625 
Q 49.609375 66.109375 42.828125 66.109375 
Q 29.4375 66.109375 22.71875 58.640625 
Q 16.015625 51.171875 16.015625 36.375 
Q 16.015625 21.625 22.71875 14.15625 
Q 29.4375 6.6875 42.828125 6.6875 
Q 48.046875 6.6875 52.140625 7.59375 
Q 56.25 8.5 59.515625 10.40625 
z
" id="DejaVuSans-71"/>
      <path d="M 56.203125 29.59375 
L 56.203125 25.203125 
L 14.890625 25.203125 
Q 15.484375 15.921875 20.484375 11.0625 
Q 25.484375 6.203125 34.421875 6.203125 
Q 39.59375 6.203125 44.453125 7.46875 
Q 49.3125 8.734375 54.109375 11.28125 
L 54.109375 2.78125 
Q 49.265625 0.734375 44.1875 -0.34375 
Q 39.109375 -1.421875 33.890625 -1.421875 
Q 20.796875 -1.421875 13.15625 6.1875 
Q 5.515625 13.8125 5.515625 26.8125 
Q 5.515625 40.234375 12.765625 48.109375 
Q 20.015625 56 32.328125 56 
Q 43.359375 56 49.78125 48.890625 
Q 56.203125 41.796875 56.203125 29.59375 
z
M 47.21875 32.234375 
Q 47.125 39.59375 43.09375 43.984375 
Q 39.0625 48.390625 32.421875 48.390625 
Q 24.90625 48.390625 20.390625 44.140625 
Q 15.875 39.890625 15.1875 32.171875 
z
" id="DejaVuSans-101"/>
      <path d="M 28.609375 0 
L 0.78125 72.90625 
L 11.078125 72.90625 
L 34.1875 11.53125 
L 57.328125 72.90625 
L 67.578125 72.90625 
L 39.796875 0 
z
" id="DejaVuSans-86"/>
     </defs>
     <g transform="translate(267.649 261.79625)scale(0.12 -0.12)">
      <use transform="translate(0 0.015625)" xlink:href="#DejaVuSans-Oblique-77"/>
      <use transform="translate(86.279297 0.015625)" xlink:href="#DejaVuSans-32"/>
      <use transform="translate(118.066406 0.015625)" xlink:href="#DejaVuSans-105"/>
      <use transform="translate(145.849609 0.015625)" xlink:href="#DejaVuSans-110"/>
      <use transform="translate(209.228516 0.015625)" xlink:href="#DejaVuSans-32"/>
      <use transform="translate(241.015625 0.015625)" xlink:href="#DejaVuSans-71"/>
      <use transform="translate(318.505859 0.015625)" xlink:href="#DejaVuSans-101"/>
      <use transform="translate(380.029297 0.015625)" xlink:href="#DejaVuSans-86"/>
     </g>
    </g>
   </g>
   <g id="matplotlib.axis_2">
    <g id="ytick_1">
     <g id="line2d_19">
      <path clip-path="url(#p7a78430a5c)" d="M 67.898 232 
L 521.28 232 
" style="fill:none;stroke:#b0b0b0;stroke-linecap:square;stroke-width:0.8;"/>
     </g>
     <g id="line2d_20">
      <defs>
       <path d="M 0 0 
L -3.5 0 
" id="m13e94a5798" style="stroke:#000000;stroke-width:0.8;"/>
      </defs>
      <g>
       <use style="stroke:#000000;stroke-width:0.8;" x="67.898" xlink:href="#m13e94a5798" y="232"/>
      </g>
     </g>
     <g id="text_11">
      <!-- 0.010 -->
      <g transform="translate(32.269875 235.799219)scale(0.1 -0.1)">
       <use xlink:href="#DejaVuSans-48"/>
       <use x="63.623047" xlink:href="#DejaVuSans-46"/>
       <use x="95.410156" xlink:href="#DejaVuSans-48"/>
       <use x="159.033203" xlink:href="#DejaVuSans-49"/>
       <use x="222.65625" xlink:href="#DejaVuSans-48"/>
      </g>
     </g>
    </g>
    <g id="ytick_2">
     <g id="line2d_21">
      <path clip-path="url(#p7a78430a5c)" d="M 67.898 175.597679 
L 521.28 175.597679 
" style="fill:none;stroke:#b0b0b0;stroke-linecap:square;stroke-width:0.8;"/>
     </g>
     <g id="line2d_22">
      <g>
       <use style="stroke:#000000;stroke-width:0.8;" x="67.898" xlink:href="#m13e94a5798" y="175.597679"/>
      </g>
     </g>
     <g id="text_12">
      <!-- 0.015 -->
      <g transform="translate(32.269875 179.396898)scale(0.1 -0.1)">
       <use xlink:href="#DejaVuSans-48"/>
       <use x="63.623047" xlink:href="#DejaVuSans-46"/>
       <use x="95.410156" xlink:href="#DejaVuSans-48"/>
       <use x="159.033203" xlink:href="#DejaVuSans-49"/>
       <use x="222.65625" xlink:href="#DejaVuSans-53"/>
      </g>
     </g>
    </g>
    <g id="ytick_3">
     <g id="line2d_23">
      <path clip-path="url(#p7a78430a5c)" d="M 67.898 119.195358 
L 521.28 119.195358 
" style="fill:none;stroke:#b0b0b0;stroke-linecap:square;stroke-width:0.8;"/>
     </g>
     <g id="line2d_24">
      <g>
       <use style="stroke:#000000;stroke-width:0.8;" x="67.898" xlink:href="#m13e94a5798" y="119.195358"/>
      </g>
     </g>
     <g id="text_13">
      <!-- 0.020 -->
      <g transform="translate(32.269875 122.994577)scale(0.1 -0.1)">
       <use xlink:href="#DejaVuSans-48"/>
       <use x="63.623047" xlink:href="#DejaVuSans-46"/>
       <use x="95.410156" xlink:href="#DejaVuSans-48"/>
       <use x="159.033203" xlink:href="#DejaVuSans-50"/>
       <use x="222.65625" xlink:href="#DejaVuSans-48"/>
      </g>
     </g>
    </g>
    <g id="ytick_4">
     <g id="line2d_25">
      <path clip-path="url(#p7a78430a5c)" d="M 67.898 62.793038 
L 521.28 62.793038 
" style="fill:none;stroke:#b0b0b0;stroke-linecap:square;stroke-width:0.8;"/>
     </g>
     <g id="line2d_26">
      <g>
       <use style="stroke:#000000;stroke-width:0.8;" x="67.898" xlink:href="#m13e94a5798" y="62.793038"/>
      </g>
     </g>
     <g id="text_14">
      <!-- 0.025 -->
      <g transform="translate(32.269875 66.592256)scale(0.1 -0.1)">
       <use xlink:href="#DejaVuSans-48"/>
       <use x="63.623047" xlink:href="#DejaVuSans-46"/>
       <use x="95.410156" xlink:href="#DejaVuSans-48"/>
       <use x="159.033203" xlink:href="#DejaVuSans-50"/>
       <use x="222.65625" xlink:href="#DejaVuSans-53"/>
      </g>
     </g>
    </g>
    <g id="text_15">
     <!-- $\lambda_{H}^{4}$ in GeV$^4$ -->
     <defs>
      <path d="M 36.71875 67.4375 
L 48.828125 0 
L 39.3125 0 
L 31.84375 40.4375 
L 5.125 0 
L -4.390625 0 
L 29.734375 52.4375 
L 28.03125 62.109375 
Q 26.953125 68.265625 21.734375 68.265625 
L 17.046875 68.265625 
L 18.5 75.984375 
L 24.21875 75.875 
Q 35.203125 75.734375 36.71875 67.4375 
z
" id="DejaVuSans-Oblique-955"/>
      <path d="M 16.890625 72.90625 
L 26.8125 72.90625 
L 21 43.015625 
L 56.78125 43.015625 
L 62.59375 72.90625 
L 72.515625 72.90625 
L 58.296875 0 
L 48.390625 0 
L 55.171875 34.71875 
L 19.390625 34.71875 
L 12.59375 0 
L 2.6875 0 
z
" id="DejaVuSans-Oblique-72"/>
     </defs>
     <g transform="translate(24.909875 154.16)rotate(-90)scale(0.12 -0.12)">
      <use transform="translate(0 0.684375)" xlink:href="#DejaVuSans-Oblique-955"/>
      <use transform="translate(66.627396 38.965625)scale(0.7)" xlink:href="#DejaVuSans-52"/>
      <use transform="translate(59.179688 -26.659375)scale(0.7)" xlink:href="#DejaVuSans-Oblique-72"/>
      <use transform="translate(114.550781 0.684375)" xlink:href="#DejaVuSans-32"/>
      <use transform="translate(146.337891 0.684375)" xlink:href="#DejaVuSans-105"/>
      <use transform="translate(174.121094 0.684375)" xlink:href="#DejaVuSans-110"/>
      <use transform="translate(237.5 0.684375)" xlink:href="#DejaVuSans-32"/>
      <use transform="translate(269.287109 0.684375)" xlink:href="#DejaVuSans-71"/>
      <use transform="translate(346.777344 0.684375)" xlink:href="#DejaVuSans-101"/>
      <use transform="translate(408.300781 0.684375)" xlink:href="#DejaVuSans-86"/>
      <use transform="translate(477.666016 38.965625)scale(0.7)" xlink:href="#DejaVuSans-52"/>
     </g>
    </g>
   </g>
   <g id="line2d_27">
    <path clip-path="url(#p7a78430a5c)" d="M 67.898 22.36298 
L 70.731638 52.379756 
L 73.565275 75.091826 
L 76.398913 92.823662 
L 79.23255 107.010391 
L 82.066188 118.585941 
L 84.899825 128.184211 
L 87.733463 136.250552 
L 90.5671 143.106966 
L 93.400738 148.99201 
L 96.234375 154.08614 
L 99.068013 158.528353 
L 101.90165 162.427416 
L 104.735288 165.869637 
L 107.568925 168.92435 
L 110.402563 171.647876 
L 113.2362 174.086417 
L 116.069838 176.27822 
L 118.903475 178.255199 
L 121.737113 180.044185 
L 124.57075 181.667888 
L 127.404387 183.145649 
L 133.071663 185.727302 
L 138.738938 187.89625 
L 144.406212 189.733304 
L 150.073487 191.300453 
L 155.740763 192.645933 
L 161.408037 193.807759 
L 169.90895 195.270769 
L 178.409862 196.466087 
L 186.910775 197.451662 
L 198.245325 198.512945 
L 209.579875 199.352737 
L 223.748063 200.171039 
L 240.749887 200.906651 
L 260.58535 201.528082 
L 286.088087 202.078159 
L 317.2581 202.511112 
L 359.762663 202.856049 
L 419.26905 203.093025 
L 512.779088 203.218476 
L 521.28 203.222589 
L 521.28 203.222589 
" style="fill:none;stroke:#ff0000;stroke-dasharray:7.4,3.2;stroke-dashoffset:0;stroke-width:2;"/>
   </g>
   <g id="line2d_28">
    <path clip-path="url(#p7a78430a5c)" d="M 67.898 34.169626 
L 70.731638 62.043132 
L 73.565275 83.239404 
L 76.398913 99.847551 
L 79.23255 113.169824 
L 82.066188 124.060157 
L 84.899825 133.101754 
L 87.733463 140.706459 
L 90.5671 147.173345 
L 93.400738 152.724799 
L 96.234375 157.529584 
L 99.068013 161.718051 
L 101.90165 165.392446 
L 104.735288 168.634076 
L 107.568925 171.508377 
L 110.402563 174.06859 
L 113.2362 176.358455 
L 116.069838 178.414221 
L 118.903475 180.266171 
L 121.737113 181.939786 
L 124.57075 183.456651 
L 130.238025 186.091071 
L 135.9053 188.287595 
L 141.572575 190.134617 
L 147.23985 191.699416 
L 152.907125 193.033978 
L 158.5744 194.178999 
L 167.075312 195.609857 
L 175.576225 196.768476 
L 184.077138 197.715581 
L 195.411688 198.725685 
L 206.746238 199.516465 
L 220.914425 200.278196 
L 237.91625 200.953715 
L 257.751712 201.515583 
L 283.25445 202.00381 
L 317.2581 202.405124 
L 362.5963 202.695758 
L 430.6036 202.883705 
L 521.28 202.950581 
L 521.28 202.950581 
" style="fill:none;stroke:#000000;stroke-linecap:square;stroke-width:2;"/>
   </g>
   <g id="line2d_29">
    <path clip-path="url(#p7a78430a5c)" d="M 67.898 41.752496 
L 70.731638 68.28892 
L 73.565275 88.525672 
L 76.398913 104.41258 
L 79.23255 117.17239 
L 82.066188 127.61075 
L 84.899825 136.280055 
L 87.733463 143.571672 
L 90.5671 149.770595 
L 93.400738 155.089251 
L 96.234375 159.689179 
L 99.068013 163.695377 
L 101.90165 167.206048 
L 104.735288 170.299393 
L 107.568925 173.038427 
L 110.402563 175.474475 
L 113.2362 177.649742 
L 116.069838 179.599235 
L 118.903475 181.352218 
L 121.737113 182.933331 
L 124.57075 184.363452 
L 130.238025 186.83938 
L 135.9053 188.89439 
L 141.572575 190.614068 
L 147.23985 192.063549 
L 152.907125 193.293136 
L 158.5744 194.342182 
L 167.075312 195.643599 
L 175.576225 196.687641 
L 184.077138 197.532734 
L 195.411688 198.42326 
L 209.579875 199.256539 
L 223.748063 199.868218 
L 243.583525 200.471188 
L 266.252625 200.922841 
L 297.422637 201.295219 
L 339.9272 201.55015 
L 405.100863 201.683738 
L 521.28 201.669785 
L 521.28 201.669785 
" style="fill:none;stroke:#0000ff;stroke-dasharray:7.4,3.2;stroke-dashoffset:0;stroke-width:2;"/>
   </g>
   <g id="patch_3">
    <path d="M 67.898 232 
L 67.898 13.32 
" style="fill:none;stroke:#000000;stroke-linecap:square;stroke-linejoin:miter;stroke-width:0.8;"/>
   </g>
   <g id="patch_4">
    <path d="M 521.28 232 
L 521.28 13.32 
" style="fill:none;stroke:#000000;stroke-linecap:square;stroke-linejoin:miter;stroke-width:0.8;"/>
   </g>
   <g id="patch_5">
    <path d="M 67.898 232 
L 521.28 232 
" style="fill:none;stroke:#000000;stroke-linecap:square;stroke-linejoin:miter;stroke-width:0.8;"/>
   </g>
   <g id="patch_6">
    <path d="M 67.898 13.32 
L 521.28 13.32 
" style="fill:none;stroke:#000000;stroke-linecap:square;stroke-linejoin:miter;stroke-width:0.8;"/>
   </g>
   <g id="legend_1">
    <g id="patch_7">
     <path d="M 346.52 77.76125 
L 514.88 77.76125 
Q 517.28 77.76125 517.28 75.36125 
L 517.28 23.72 
Q 517.28 21.32 514.88 21.32 
L 346.52 21.32 
Q 344.12 21.32 344.12 23.72 
L 344.12 75.36125 
Q 344.12 77.76125 346.52 77.76125 
z
" style="fill:#4c4c4c;opacity:0.5;stroke:#4c4c4c;stroke-linejoin:miter;"/>
    </g>
    <g id="patch_8">
     <path d="M 344.52 75.76125 
L 512.88 75.76125 
Q 515.28 75.76125 515.28 73.36125 
L 515.28 21.72 
Q 515.28 19.32 512.88 19.32 
L 344.52 19.32 
Q 342.12 19.32 342.12 21.72 
L 342.12 73.36125 
Q 342.12 75.76125 344.52 75.76125 
z
" style="fill:#ffffff;stroke:#cccccc;stroke-linejoin:miter;"/>
    </g>
    <g id="line2d_30">
     <path d="M 346.92 29.038125 
L 370.92 29.038125 
" style="fill:none;stroke:#ff0000;stroke-dasharray:7.4,3.2;stroke-dashoffset:0;stroke-width:2;"/>
    </g>
    <g id="line2d_31"/>
    <g id="text_16">
     <!-- OPE for $\omega_{th} = 0.8$ GeV -->
     <defs>
      <path d="M 39.40625 66.21875 
Q 28.65625 66.21875 22.328125 58.203125 
Q 16.015625 50.203125 16.015625 36.375 
Q 16.015625 22.609375 22.328125 14.59375 
Q 28.65625 6.59375 39.40625 6.59375 
Q 50.140625 6.59375 56.421875 14.59375 
Q 62.703125 22.609375 62.703125 36.375 
Q 62.703125 50.203125 56.421875 58.203125 
Q 50.140625 66.21875 39.40625 66.21875 
z
M 39.40625 74.21875 
Q 54.734375 74.21875 63.90625 63.9375 
Q 73.09375 53.65625 73.09375 36.375 
Q 73.09375 19.140625 63.90625 8.859375 
Q 54.734375 -1.421875 39.40625 -1.421875 
Q 24.03125 -1.421875 14.8125 8.828125 
Q 5.609375 19.09375 5.609375 36.375 
Q 5.609375 53.65625 14.8125 63.9375 
Q 24.03125 74.21875 39.40625 74.21875 
z
" id="DejaVuSans-79"/>
      <path d="M 19.671875 64.796875 
L 19.671875 37.40625 
L 32.078125 37.40625 
Q 38.96875 37.40625 42.71875 40.96875 
Q 46.484375 44.53125 46.484375 51.125 
Q 46.484375 57.671875 42.71875 61.234375 
Q 38.96875 64.796875 32.078125 64.796875 
z
M 9.8125 72.90625 
L 32.078125 72.90625 
Q 44.34375 72.90625 50.609375 67.359375 
Q 56.890625 61.8125 56.890625 51.125 
Q 56.890625 40.328125 50.609375 34.8125 
Q 44.34375 29.296875 32.078125 29.296875 
L 19.671875 29.296875 
L 19.671875 0 
L 9.8125 0 
z
" id="DejaVuSans-80"/>
      <path d="M 9.8125 72.90625 
L 55.90625 72.90625 
L 55.90625 64.59375 
L 19.671875 64.59375 
L 19.671875 43.015625 
L 54.390625 43.015625 
L 54.390625 34.71875 
L 19.671875 34.71875 
L 19.671875 8.296875 
L 56.78125 8.296875 
L 56.78125 0 
L 9.8125 0 
z
" id="DejaVuSans-69"/>
      <path d="M 37.109375 75.984375 
L 37.109375 68.5 
L 28.515625 68.5 
Q 23.6875 68.5 21.796875 66.546875 
Q 19.921875 64.59375 19.921875 59.515625 
L 19.921875 54.6875 
L 34.71875 54.6875 
L 34.71875 47.703125 
L 19.921875 47.703125 
L 19.921875 0 
L 10.890625 0 
L 10.890625 47.703125 
L 2.296875 47.703125 
L 2.296875 54.6875 
L 10.890625 54.6875 
L 10.890625 58.5 
Q 10.890625 67.625 15.140625 71.796875 
Q 19.390625 75.984375 28.609375 75.984375 
z
" id="DejaVuSans-102"/>
      <path d="M 30.609375 48.390625 
Q 23.390625 48.390625 19.1875 42.75 
Q 14.984375 37.109375 14.984375 27.296875 
Q 14.984375 17.484375 19.15625 11.84375 
Q 23.34375 6.203125 30.609375 6.203125 
Q 37.796875 6.203125 41.984375 11.859375 
Q 46.1875 17.53125 46.1875 27.296875 
Q 46.1875 37.015625 41.984375 42.703125 
Q 37.796875 48.390625 30.609375 48.390625 
z
M 30.609375 56 
Q 42.328125 56 49.015625 48.375 
Q 55.71875 40.765625 55.71875 27.296875 
Q 55.71875 13.875 49.015625 6.21875 
Q 42.328125 -1.421875 30.609375 -1.421875 
Q 18.84375 -1.421875 12.171875 6.21875 
Q 5.515625 13.875 5.515625 27.296875 
Q 5.515625 40.765625 12.171875 48.375 
Q 18.84375 56 30.609375 56 
z
" id="DejaVuSans-111"/>
      <path d="M 41.109375 46.296875 
Q 39.59375 47.171875 37.8125 47.578125 
Q 36.03125 48 33.890625 48 
Q 26.265625 48 22.1875 43.046875 
Q 18.109375 38.09375 18.109375 28.8125 
L 18.109375 0 
L 9.078125 0 
L 9.078125 54.6875 
L 18.109375 54.6875 
L 18.109375 46.1875 
Q 20.953125 51.171875 25.484375 53.578125 
Q 30.03125 56 36.53125 56 
Q 37.453125 56 38.578125 55.875 
Q 39.703125 55.765625 41.0625 55.515625 
z
" id="DejaVuSans-114"/>
      <path d="M 21.390625 -1.421875 
Q 1.125 -1.421875 6.78125 27.59375 
Q 8.984375 39.0625 19.625 54.6875 
L 29.296875 54.6875 
Q 19.234375 39.0625 17 27.34375 
Q 12.796875 6.203125 23.734375 6.203125 
Q 33.84375 6.203125 38.71875 32.46875 
L 47.015625 32.46875 
Q 41.703125 6.0625 51.8125 6.203125 
Q 62.703125 6.296875 66.796875 27.34375 
Q 69.046875 39.0625 65.140625 54.6875 
L 74.8125 54.6875 
Q 79.296875 39.0625 77.09375 27.59375 
Q 71.53125 -1.46875 51.21875 -1.421875 
Q 37.9375 -1.375 39.109375 13.1875 
Q 34.28125 -1.421875 21.390625 -1.421875 
z
" id="DejaVuSans-Oblique-969"/>
      <path d="M 42.28125 54.6875 
L 40.921875 47.703125 
L 23 47.703125 
L 17.1875 18.015625 
Q 16.890625 16.359375 16.75 15.234375 
Q 16.609375 14.109375 16.609375 13.484375 
Q 16.609375 10.359375 18.484375 8.9375 
Q 20.359375 7.515625 24.515625 7.515625 
L 33.59375 7.515625 
L 32.078125 0 
L 23.484375 0 
Q 15.484375 0 11.546875 3.125 
Q 7.625 6.25 7.625 12.59375 
Q 7.625 13.71875 7.765625 15.0625 
Q 7.90625 16.40625 8.203125 18.015625 
L 14.015625 47.703125 
L 6.390625 47.703125 
L 7.8125 54.6875 
L 15.28125 54.6875 
L 18.3125 70.21875 
L 27.296875 70.21875 
L 24.3125 54.6875 
z
" id="DejaVuSans-Oblique-116"/>
      <path d="M 55.71875 33.015625 
L 49.3125 0 
L 40.28125 0 
L 46.6875 32.671875 
Q 47.125 34.96875 47.359375 36.71875 
Q 47.609375 38.484375 47.609375 39.5 
Q 47.609375 43.609375 45.015625 45.890625 
Q 42.4375 48.1875 37.796875 48.1875 
Q 30.5625 48.1875 25.265625 43.296875 
Q 19.96875 38.421875 18.40625 30.328125 
L 12.5 0 
L 3.515625 0 
L 18.3125 75.984375 
L 27.296875 75.984375 
L 21.484375 46.09375 
Q 24.90625 50.6875 30.21875 53.34375 
Q 35.546875 56 41.40625 56 
Q 48.640625 56 52.609375 52.09375 
Q 56.59375 48.1875 56.59375 41.109375 
Q 56.59375 39.359375 56.375 37.359375 
Q 56.15625 35.359375 55.71875 33.015625 
z
" id="DejaVuSans-Oblique-104"/>
      <path d="M 10.59375 45.40625 
L 73.1875 45.40625 
L 73.1875 37.203125 
L 10.59375 37.203125 
z
M 10.59375 25.484375 
L 73.1875 25.484375 
L 73.1875 17.1875 
L 10.59375 17.1875 
z
" id="DejaVuSans-61"/>
     </defs>
     <g transform="translate(380.52 33.238125)scale(0.12 -0.12)">
      <use transform="translate(0 0.015625)" xlink:href="#DejaVuSans-79"/>
      <use transform="translate(78.710938 0.015625)" xlink:href="#DejaVuSans-80"/>
      <use transform="translate(139.013672 0.015625)" xlink:href="#DejaVuSans-69"/>
      <use transform="translate(202.197266 0.015625)" xlink:href="#DejaVuSans-32"/>
      <use transform="translate(233.984375 0.015625)" xlink:href="#DejaVuSans-102"/>
      <use transform="translate(269.189453 0.015625)" xlink:href="#DejaVuSans-111"/>
      <use transform="translate(330.371094 0.015625)" xlink:href="#DejaVuSans-114"/>
      <use transform="translate(371.484375 0.015625)" xlink:href="#DejaVuSans-32"/>
      <use transform="translate(403.271484 0.015625)" xlink:href="#DejaVuSans-Oblique-969"/>
      <use transform="translate(487.011719 -16.390625)scale(0.7)" xlink:href="#DejaVuSans-Oblique-116"/>
      <use transform="translate(514.458008 -16.390625)scale(0.7)" xlink:href="#DejaVuSans-Oblique-104"/>
      <use transform="translate(581.040039 0.015625)" xlink:href="#DejaVuSans-61"/>
      <use transform="translate(684.311523 0.015625)" xlink:href="#DejaVuSans-48"/>
      <use transform="translate(747.93457 0.015625)" xlink:href="#DejaVuSans-46"/>
      <use transform="translate(779.69043 0.015625)" xlink:href="#DejaVuSans-56"/>
      <use transform="translate(843.313477 0.015625)" xlink:href="#DejaVuSans-32"/>
      <use transform="translate(875.100586 0.015625)" xlink:href="#DejaVuSans-71"/>
      <use transform="translate(952.59082 0.015625)" xlink:href="#DejaVuSans-101"/>
      <use transform="translate(1014.114258 0.015625)" xlink:href="#DejaVuSans-86"/>
     </g>
    </g>
    <g id="line2d_32">
     <path d="M 346.92 46.651875 
L 370.92 46.651875 
" style="fill:none;stroke:#000000;stroke-linecap:square;stroke-width:2;"/>
    </g>
    <g id="line2d_33"/>
    <g id="text_17">
     <!-- OPE for $\omega_{th} = 0.9$ GeV -->
     <g transform="translate(380.52 50.851875)scale(0.12 -0.12)">
      <use transform="translate(0 0.015625)" xlink:href="#DejaVuSans-79"/>
      <use transform="translate(78.710938 0.015625)" xlink:href="#DejaVuSans-80"/>
      <use transform="translate(139.013672 0.015625)" xlink:href="#DejaVuSans-69"/>
      <use transform="translate(202.197266 0.015625)" xlink:href="#DejaVuSans-32"/>
      <use transform="translate(233.984375 0.015625)" xlink:href="#DejaVuSans-102"/>
      <use transform="translate(269.189453 0.015625)" xlink:href="#DejaVuSans-111"/>
      <use transform="translate(330.371094 0.015625)" xlink:href="#DejaVuSans-114"/>
      <use transform="translate(371.484375 0.015625)" xlink:href="#DejaVuSans-32"/>
      <use transform="translate(403.271484 0.015625)" xlink:href="#DejaVuSans-Oblique-969"/>
      <use transform="translate(487.011719 -16.390625)scale(0.7)" xlink:href="#DejaVuSans-Oblique-116"/>
      <use transform="translate(514.458008 -16.390625)scale(0.7)" xlink:href="#DejaVuSans-Oblique-104"/>
      <use transform="translate(581.040039 0.015625)" xlink:href="#DejaVuSans-61"/>
      <use transform="translate(684.311523 0.015625)" xlink:href="#DejaVuSans-48"/>
      <use transform="translate(747.93457 0.015625)" xlink:href="#DejaVuSans-46"/>
      <use transform="translate(779.72168 0.015625)" xlink:href="#DejaVuSans-57"/>
      <use transform="translate(843.344727 0.015625)" xlink:href="#DejaVuSans-32"/>
      <use transform="translate(875.131836 0.015625)" xlink:href="#DejaVuSans-71"/>
      <use transform="translate(952.62207 0.015625)" xlink:href="#DejaVuSans-101"/>
      <use transform="translate(1014.145508 0.015625)" xlink:href="#DejaVuSans-86"/>
     </g>
    </g>
    <g id="line2d_34">
     <path d="M 346.92 64.265625 
L 370.92 64.265625 
" style="fill:none;stroke:#0000ff;stroke-dasharray:7.4,3.2;stroke-dashoffset:0;stroke-width:2;"/>
    </g>
    <g id="line2d_35"/>
    <g id="text_18">
     <!-- OPE for $\omega_{th} = 1.0$ GeV -->
     <g transform="translate(380.52 68.465625)scale(0.12 -0.12)">
      <use transform="translate(0 0.015625)" xlink:href="#DejaVuSans-79"/>
      <use transform="translate(78.710938 0.015625)" xlink:href="#DejaVuSans-80"/>
      <use transform="translate(139.013672 0.015625)" xlink:href="#DejaVuSans-69"/>
      <use transform="translate(202.197266 0.015625)" xlink:href="#DejaVuSans-32"/>
      <use transform="translate(233.984375 0.015625)" xlink:href="#DejaVuSans-102"/>
      <use transform="translate(269.189453 0.015625)" xlink:href="#DejaVuSans-111"/>
      <use transform="translate(330.371094 0.015625)" xlink:href="#DejaVuSans-114"/>
      <use transform="translate(371.484375 0.015625)" xlink:href="#DejaVuSans-32"/>
      <use transform="translate(403.271484 0.015625)" xlink:href="#DejaVuSans-Oblique-969"/>
      <use transform="translate(487.011719 -16.390625)scale(0.7)" xlink:href="#DejaVuSans-Oblique-116"/>
      <use transform="translate(514.458008 -16.390625)scale(0.7)" xlink:href="#DejaVuSans-Oblique-104"/>
      <use transform="translate(581.040039 0.015625)" xlink:href="#DejaVuSans-61"/>
      <use transform="translate(684.311523 0.015625)" xlink:href="#DejaVuSans-49"/>
      <use transform="translate(747.93457 0.015625)" xlink:href="#DejaVuSans-46"/>
      <use transform="translate(779.72168 0.015625)" xlink:href="#DejaVuSans-48"/>
      <use transform="translate(843.344727 0.015625)" xlink:href="#DejaVuSans-32"/>
      <use transform="translate(875.131836 0.015625)" xlink:href="#DejaVuSans-71"/>
      <use transform="translate(952.62207 0.015625)" xlink:href="#DejaVuSans-101"/>
      <use transform="translate(1014.145508 0.015625)" xlink:href="#DejaVuSans-86"/>
     </g>
    </g>
   </g>
  </g>
  <g id="axes_2">
   <g id="patch_9">
    <path d="M 67.898 496.6 
L 521.28 496.6 
L 521.28 277.92 
L 67.898 277.92 
z
" style="fill:#ffffff;"/>
   </g>
   <g id="matplotlib.axis_3">
    <g id="xtick_10">
     <g id="line2d_36">
      <path clip-path="url(#pc890cc9637)" d="M 67.898 496.6 
L 67.898 277.92 
" style="fill:none;stroke:#b0b0b0;stroke-linecap:square;stroke-width:0.8;"/>
     </g>
     <g id="line2d_37">
      <g>
       <use style="stroke:#000000;stroke-width:0.8;" x="67.898" xlink:href="#m26213c88c6" y="496.6"/>
      </g>
     </g>
     <g id="text_19">
      <!-- 0.2 -->
      <g transform="translate(59.946438 511.198438)scale(0.1 -0.1)">
       <use xlink:href="#DejaVuSans-48"/>
       <use x="63.623047" xlink:href="#DejaVuSans-46"/>
       <use x="95.410156" xlink:href="#DejaVuSans-50"/>
      </g>
     </g>
    </g>
    <g id="xtick_11">
     <g id="line2d_38">
      <path clip-path="url(#pc890cc9637)" d="M 124.57075 496.6 
L 124.57075 277.92 
" style="fill:none;stroke:#b0b0b0;stroke-linecap:square;stroke-width:0.8;"/>
     </g>
     <g id="line2d_39">
      <g>
       <use style="stroke:#000000;stroke-width:0.8;" x="124.57075" xlink:href="#m26213c88c6" y="496.6"/>
      </g>
     </g>
     <g id="text_20">
      <!-- 0.3 -->
      <g transform="translate(116.619188 511.198438)scale(0.1 -0.1)">
       <use xlink:href="#DejaVuSans-48"/>
       <use x="63.623047" xlink:href="#DejaVuSans-46"/>
       <use x="95.410156" xlink:href="#DejaVuSans-51"/>
      </g>
     </g>
    </g>
    <g id="xtick_12">
     <g id="line2d_40">
      <path clip-path="url(#pc890cc9637)" d="M 181.2435 496.6 
L 181.2435 277.92 
" style="fill:none;stroke:#b0b0b0;stroke-linecap:square;stroke-width:0.8;"/>
     </g>
     <g id="line2d_41">
      <g>
       <use style="stroke:#000000;stroke-width:0.8;" x="181.2435" xlink:href="#m26213c88c6" y="496.6"/>
      </g>
     </g>
     <g id="text_21">
      <!-- 0.4 -->
      <g transform="translate(173.291938 511.198438)scale(0.1 -0.1)">
       <use xlink:href="#DejaVuSans-48"/>
       <use x="63.623047" xlink:href="#DejaVuSans-46"/>
       <use x="95.410156" xlink:href="#DejaVuSans-52"/>
      </g>
     </g>
    </g>
    <g id="xtick_13">
     <g id="line2d_42">
      <path clip-path="url(#pc890cc9637)" d="M 237.91625 496.6 
L 237.91625 277.92 
" style="fill:none;stroke:#b0b0b0;stroke-linecap:square;stroke-width:0.8;"/>
     </g>
     <g id="line2d_43">
      <g>
       <use style="stroke:#000000;stroke-width:0.8;" x="237.91625" xlink:href="#m26213c88c6" y="496.6"/>
      </g>
     </g>
     <g id="text_22">
      <!-- 0.5 -->
      <g transform="translate(229.964687 511.198438)scale(0.1 -0.1)">
       <use xlink:href="#DejaVuSans-48"/>
       <use x="63.623047" xlink:href="#DejaVuSans-46"/>
       <use x="95.410156" xlink:href="#DejaVuSans-53"/>
      </g>
     </g>
    </g>
    <g id="xtick_14">
     <g id="line2d_44">
      <path clip-path="url(#pc890cc9637)" d="M 294.589 496.6 
L 294.589 277.92 
" style="fill:none;stroke:#b0b0b0;stroke-linecap:square;stroke-width:0.8;"/>
     </g>
     <g id="line2d_45">
      <g>
       <use style="stroke:#000000;stroke-width:0.8;" x="294.589" xlink:href="#m26213c88c6" y="496.6"/>
      </g>
     </g>
     <g id="text_23">
      <!-- 0.6 -->
      <g transform="translate(286.637438 511.198438)scale(0.1 -0.1)">
       <use xlink:href="#DejaVuSans-48"/>
       <use x="63.623047" xlink:href="#DejaVuSans-46"/>
       <use x="95.410156" xlink:href="#DejaVuSans-54"/>
      </g>
     </g>
    </g>
    <g id="xtick_15">
     <g id="line2d_46">
      <path clip-path="url(#pc890cc9637)" d="M 351.26175 496.6 
L 351.26175 277.92 
" style="fill:none;stroke:#b0b0b0;stroke-linecap:square;stroke-width:0.8;"/>
     </g>
     <g id="line2d_47">
      <g>
       <use style="stroke:#000000;stroke-width:0.8;" x="351.26175" xlink:href="#m26213c88c6" y="496.6"/>
      </g>
     </g>
     <g id="text_24">
      <!-- 0.7 -->
      <g transform="translate(343.310187 511.198438)scale(0.1 -0.1)">
       <use xlink:href="#DejaVuSans-48"/>
       <use x="63.623047" xlink:href="#DejaVuSans-46"/>
       <use x="95.410156" xlink:href="#DejaVuSans-55"/>
      </g>
     </g>
    </g>
    <g id="xtick_16">
     <g id="line2d_48">
      <path clip-path="url(#pc890cc9637)" d="M 407.9345 496.6 
L 407.9345 277.92 
" style="fill:none;stroke:#b0b0b0;stroke-linecap:square;stroke-width:0.8;"/>
     </g>
     <g id="line2d_49">
      <g>
       <use style="stroke:#000000;stroke-width:0.8;" x="407.9345" xlink:href="#m26213c88c6" y="496.6"/>
      </g>
     </g>
     <g id="text_25">
      <!-- 0.8 -->
      <g transform="translate(399.982937 511.198438)scale(0.1 -0.1)">
       <use xlink:href="#DejaVuSans-48"/>
       <use x="63.623047" xlink:href="#DejaVuSans-46"/>
       <use x="95.410156" xlink:href="#DejaVuSans-56"/>
      </g>
     </g>
    </g>
    <g id="xtick_17">
     <g id="line2d_50">
      <path clip-path="url(#pc890cc9637)" d="M 464.60725 496.6 
L 464.60725 277.92 
" style="fill:none;stroke:#b0b0b0;stroke-linecap:square;stroke-width:0.8;"/>
     </g>
     <g id="line2d_51">
      <g>
       <use style="stroke:#000000;stroke-width:0.8;" x="464.60725" xlink:href="#m26213c88c6" y="496.6"/>
      </g>
     </g>
     <g id="text_26">
      <!-- 0.9 -->
      <g transform="translate(456.655688 511.198438)scale(0.1 -0.1)">
       <use xlink:href="#DejaVuSans-48"/>
       <use x="63.623047" xlink:href="#DejaVuSans-46"/>
       <use x="95.410156" xlink:href="#DejaVuSans-57"/>
      </g>
     </g>
    </g>
    <g id="xtick_18">
     <g id="line2d_52">
      <path clip-path="url(#pc890cc9637)" d="M 521.28 496.6 
L 521.28 277.92 
" style="fill:none;stroke:#b0b0b0;stroke-linecap:square;stroke-width:0.8;"/>
     </g>
     <g id="line2d_53">
      <g>
       <use style="stroke:#000000;stroke-width:0.8;" x="521.28" xlink:href="#m26213c88c6" y="496.6"/>
      </g>
     </g>
     <g id="text_27">
      <!-- 1.0 -->
      <g transform="translate(513.328437 511.198438)scale(0.1 -0.1)">
       <use xlink:href="#DejaVuSans-49"/>
       <use x="63.623047" xlink:href="#DejaVuSans-46"/>
       <use x="95.410156" xlink:href="#DejaVuSans-48"/>
      </g>
     </g>
    </g>
    <g id="text_28">
     <!-- $M$ in GeV -->
     <g transform="translate(267.649 526.39625)scale(0.12 -0.12)">
      <use transform="translate(0 0.015625)" xlink:href="#DejaVuSans-Oblique-77"/>
      <use transform="translate(86.279297 0.015625)" xlink:href="#DejaVuSans-32"/>
      <use transform="translate(118.066406 0.015625)" xlink:href="#DejaVuSans-105"/>
      <use transform="translate(145.849609 0.015625)" xlink:href="#DejaVuSans-110"/>
      <use transform="translate(209.228516 0.015625)" xlink:href="#DejaVuSans-32"/>
      <use transform="translate(241.015625 0.015625)" xlink:href="#DejaVuSans-71"/>
      <use transform="translate(318.505859 0.015625)" xlink:href="#DejaVuSans-101"/>
      <use transform="translate(380.029297 0.015625)" xlink:href="#DejaVuSans-86"/>
     </g>
    </g>
   </g>
   <g id="matplotlib.axis_4">
    <g id="ytick_5">
     <g id="line2d_54">
      <path clip-path="url(#pc890cc9637)" d="M 67.898 488.769948 
L 521.28 488.769948 
" style="fill:none;stroke:#b0b0b0;stroke-linecap:square;stroke-width:0.8;"/>
     </g>
     <g id="line2d_55">
      <g>
       <use style="stroke:#000000;stroke-width:0.8;" x="67.898" xlink:href="#m13e94a5798" y="488.769948"/>
      </g>
     </g>
     <g id="text_29">
      <!-- 0.000 -->
      <g transform="translate(32.269875 492.569166)scale(0.1 -0.1)">
       <use xlink:href="#DejaVuSans-48"/>
       <use x="63.623047" xlink:href="#DejaVuSans-46"/>
       <use x="95.410156" xlink:href="#DejaVuSans-48"/>
       <use x="159.033203" xlink:href="#DejaVuSans-48"/>
       <use x="222.65625" xlink:href="#DejaVuSans-48"/>
      </g>
     </g>
    </g>
    <g id="ytick_6">
     <g id="line2d_56">
      <path clip-path="url(#pc890cc9637)" d="M 67.898 408.220687 
L 521.28 408.220687 
" style="fill:none;stroke:#b0b0b0;stroke-linecap:square;stroke-width:0.8;"/>
     </g>
     <g id="line2d_57">
      <g>
       <use style="stroke:#000000;stroke-width:0.8;" x="67.898" xlink:href="#m13e94a5798" y="408.220687"/>
      </g>
     </g>
     <g id="text_30">
      <!-- 0.005 -->
      <g transform="translate(32.269875 412.019906)scale(0.1 -0.1)">
       <use xlink:href="#DejaVuSans-48"/>
       <use x="63.623047" xlink:href="#DejaVuSans-46"/>
       <use x="95.410156" xlink:href="#DejaVuSans-48"/>
       <use x="159.033203" xlink:href="#DejaVuSans-48"/>
       <use x="222.65625" xlink:href="#DejaVuSans-53"/>
      </g>
     </g>
    </g>
    <g id="ytick_7">
     <g id="line2d_58">
      <path clip-path="url(#pc890cc9637)" d="M 67.898 327.671427 
L 521.28 327.671427 
" style="fill:none;stroke:#b0b0b0;stroke-linecap:square;stroke-width:0.8;"/>
     </g>
     <g id="line2d_59">
      <g>
       <use style="stroke:#000000;stroke-width:0.8;" x="67.898" xlink:href="#m13e94a5798" y="327.671427"/>
      </g>
     </g>
     <g id="text_31">
      <!-- 0.010 -->
      <g transform="translate(32.269875 331.470646)scale(0.1 -0.1)">
       <use xlink:href="#DejaVuSans-48"/>
       <use x="63.623047" xlink:href="#DejaVuSans-46"/>
       <use x="95.410156" xlink:href="#DejaVuSans-48"/>
       <use x="159.033203" xlink:href="#DejaVuSans-49"/>
       <use x="222.65625" xlink:href="#DejaVuSans-48"/>
      </g>
     </g>
    </g>
    <g id="text_32">
     <!-- $\lambda_{H}^{4}$ in GeV$^4$ -->
     <g transform="translate(24.909875 418.76)rotate(-90)scale(0.12 -0.12)">
      <use transform="translate(0 0.684375)" xlink:href="#DejaVuSans-Oblique-955"/>
      <use transform="translate(66.627396 38.965625)scale(0.7)" xlink:href="#DejaVuSans-52"/>
      <use transform="translate(59.179688 -26.659375)scale(0.7)" xlink:href="#DejaVuSans-Oblique-72"/>
      <use transform="translate(114.550781 0.684375)" xlink:href="#DejaVuSans-32"/>
      <use transform="translate(146.337891 0.684375)" xlink:href="#DejaVuSans-105"/>
      <use transform="translate(174.121094 0.684375)" xlink:href="#DejaVuSans-110"/>
      <use transform="translate(237.5 0.684375)" xlink:href="#DejaVuSans-32"/>
      <use transform="translate(269.287109 0.684375)" xlink:href="#DejaVuSans-71"/>
      <use transform="translate(346.777344 0.684375)" xlink:href="#DejaVuSans-101"/>
      <use transform="translate(408.300781 0.684375)" xlink:href="#DejaVuSans-86"/>
      <use transform="translate(477.666016 38.965625)scale(0.7)" xlink:href="#DejaVuSans-52"/>
     </g>
    </g>
   </g>
   <g id="line2d_60">
    <path clip-path="url(#pc890cc9637)" d="M 67.898 486.505122 
L 76.398913 486.64888 
L 90.5671 486.621115 
L 127.404387 486.230867 
L 201.078963 485.483682 
L 274.753537 484.984539 
L 371.097213 484.568701 
L 509.94545 484.211806 
L 521.28 484.190209 
L 521.28 484.190209 
" style="fill:none;stroke:#0000ff;stroke-dasharray:7.4,3.2;stroke-dashoffset:0;stroke-width:2;"/>
   </g>
   <g id="line2d_61">
    <path clip-path="url(#pc890cc9637)" d="M 67.898 463.077043 
L 70.731638 464.358181 
L 73.565275 465.257532 
L 76.398913 465.895805 
L 79.23255 466.348354 
L 84.899825 466.878611 
L 90.5671 467.088655 
L 99.068013 467.061224 
L 110.402563 466.689228 
L 127.404387 465.836959 
L 181.2435 462.969607 
L 209.579875 461.719604 
L 240.749887 460.568482 
L 274.753537 459.535248 
L 314.424463 458.558906 
L 359.762663 457.669544 
L 413.601775 456.840334 
L 478.775437 456.067323 
L 521.28 455.661285 
L 521.28 455.661285 
" style="fill:none;stroke:#008000;stroke-dasharray:7.4,3.2;stroke-dashoffset:0;stroke-width:2;"/>
   </g>
   <g id="line2d_62">
    <path clip-path="url(#pc890cc9637)" d="M 67.898 431.793067 
L 70.731638 435.233079 
L 73.565275 437.744223 
L 76.398913 439.619796 
L 79.23255 441.0427 
L 82.066188 442.132919 
L 84.899825 442.972421 
L 87.733463 443.619096 
L 90.5671 444.114977 
L 96.234375 444.77176 
L 101.90165 445.114158 
L 107.568925 445.246425 
L 116.069838 445.190373 
L 127.404387 444.837803 
L 144.406212 444.036397 
L 206.746238 440.880154 
L 237.91625 439.603729 
L 271.9199 438.453638 
L 308.757187 437.439865 
L 351.26175 436.500464 
L 402.267225 435.613107 
L 461.773613 434.812739 
L 521.28 434.18974 
L 521.28 434.18974 
" style="fill:none;stroke:#ff0000;stroke-dasharray:7.4,3.2;stroke-dashoffset:0;stroke-width:2;"/>
   </g>
   <g id="line2d_63">
    <path clip-path="url(#pc890cc9637)" d="M 67.898 351.228514 
L 70.731638 361.493859 
L 73.565275 369.215997 
L 76.398913 375.195022 
L 79.23255 379.929532 
L 82.066188 383.746337 
L 84.899825 386.868504 
L 87.733463 389.453429 
L 90.5671 391.615289 
L 93.400738 393.438874 
L 96.234375 394.988422 
L 99.068013 396.313453 
L 101.90165 397.452722 
L 104.735288 398.436963 
L 110.402563 400.034336 
L 116.069838 401.252806 
L 121.737113 402.192323 
L 127.404387 402.922764 
L 135.9053 403.732087 
L 144.406212 404.296857 
L 155.740763 404.795679 
L 169.90895 405.159724 
L 189.744413 405.395871 
L 218.080787 405.47017 
L 274.753537 405.335717 
L 430.6036 404.934208 
L 521.28 404.815405 
L 521.28 404.815405 
" style="fill:none;stroke:#800080;stroke-dasharray:7.4,3.2;stroke-dashoffset:0;stroke-width:2;"/>
   </g>
   <g id="line2d_64">
    <path clip-path="url(#pc890cc9637)" d="M 67.898 468.531984 
L 70.731638 470.411027 
L 73.565275 471.851371 
L 76.398913 472.990264 
L 79.23255 473.913227 
L 82.066188 474.676308 
L 87.733463 475.864587 
L 93.400738 476.747674 
L 99.068013 477.430456 
L 107.568925 478.207917 
L 118.903475 478.954241 
L 133.071663 479.611588 
L 150.073487 480.167662 
L 172.742588 480.686099 
L 203.9126 481.170808 
L 249.2508 481.631096 
L 314.424463 482.04342 
L 410.768137 482.404709 
L 521.28 482.651612 
L 521.28 482.651612 
" style="fill:none;stroke:#ffa500;stroke-dasharray:7.4,3.2;stroke-dashoffset:0;stroke-width:2;"/>
   </g>
   <g id="line2d_65">
    <path clip-path="url(#pc890cc9637)" d="M 67.898 287.86 
L 70.731638 310.72722 
L 73.565275 328.380186 
L 76.398913 342.441893 
L 79.23255 353.924005 
L 82.066188 363.489926 
L 84.899825 371.592793 
L 87.733463 378.552689 
L 90.5671 384.602148 
L 93.400738 389.914198 
L 96.234375 394.620265 
L 99.068013 398.821984 
L 101.90165 402.599205 
L 104.735288 406.015543 
L 107.568925 409.122322 
L 110.402563 411.961413 
L 113.2362 414.567328 
L 116.069838 416.968774 
L 118.903475 419.189837 
L 121.737113 421.250877 
L 127.404387 424.959759 
L 133.071663 428.206891 
L 138.738938 431.075974 
L 144.406212 433.631168 
L 150.073487 435.922554 
L 155.740763 437.989841 
L 161.408037 439.864962 
L 169.90895 442.372927 
L 178.409862 444.575377 
L 186.910775 446.525279 
L 195.411688 448.263826 
L 206.746238 450.308444 
L 218.080787 452.094579 
L 229.415337 453.667983 
L 243.583525 455.388913 
L 257.751712 456.885734 
L 274.753537 458.442448 
L 291.755362 459.787304 
L 311.590825 461.141101 
L 334.259925 462.461507 
L 359.762663 463.719073 
L 388.099038 464.895551 
L 422.102687 466.071277 
L 458.939975 467.123661 
L 504.278175 468.182817 
L 521.28 468.526868 
L 521.28 468.526868 
" style="fill:none;stroke:#000000;stroke-dasharray:7.4,3.2;stroke-dashoffset:0;stroke-width:2;"/>
   </g>
   <g id="patch_10">
    <path d="M 67.898 496.6 
L 67.898 277.92 
" style="fill:none;stroke:#000000;stroke-linecap:square;stroke-linejoin:miter;stroke-width:0.8;"/>
   </g>
   <g id="patch_11">
    <path d="M 521.28 496.6 
L 521.28 277.92 
" style="fill:none;stroke:#000000;stroke-linecap:square;stroke-linejoin:miter;stroke-width:0.8;"/>
   </g>
   <g id="patch_12">
    <path d="M 67.898 496.6 
L 521.28 496.6 
" style="fill:none;stroke:#000000;stroke-linecap:square;stroke-linejoin:miter;stroke-width:0.8;"/>
   </g>
   <g id="patch_13">
    <path d="M 67.898 277.92 
L 521.28 277.92 
" style="fill:none;stroke:#000000;stroke-linecap:square;stroke-linejoin:miter;stroke-width:0.8;"/>
   </g>
   <g id="legend_2">
    <g id="patch_14">
     <path d="M 401.80625 395.2025 
L 514.88 395.2025 
Q 517.28 395.2025 517.28 392.8025 
L 517.28 288.32 
Q 517.28 285.92 514.88 285.92 
L 401.80625 285.92 
Q 399.40625 285.92 399.40625 288.32 
L 399.40625 392.8025 
Q 399.40625 395.2025 401.80625 395.2025 
z
" style="fill:#4c4c4c;opacity:0.5;stroke:#4c4c4c;stroke-linejoin:miter;"/>
    </g>
    <g id="patch_15">
     <path d="M 399.80625 393.2025 
L 512.88 393.2025 
Q 515.28 393.2025 515.28 390.8025 
L 515.28 286.32 
Q 515.28 283.92 512.88 283.92 
L 399.80625 283.92 
Q 397.40625 283.92 397.40625 286.32 
L 397.40625 390.8025 
Q 397.40625 393.2025 399.80625 393.2025 
z
" style="fill:#ffffff;stroke:#cccccc;stroke-linejoin:miter;"/>
    </g>
    <g id="line2d_66">
     <path d="M 402.20625 293.638125 
L 426.20625 293.638125 
" style="fill:none;stroke:#0000ff;stroke-dasharray:7.4,3.2;stroke-dashoffset:0;stroke-width:2;"/>
    </g>
    <g id="line2d_67"/>
    <g id="text_33">
     <!-- perturbative -->
     <defs>
      <path d="M 18.109375 8.203125 
L 18.109375 -20.796875 
L 9.078125 -20.796875 
L 9.078125 54.6875 
L 18.109375 54.6875 
L 18.109375 46.390625 
Q 20.953125 51.265625 25.265625 53.625 
Q 29.59375 56 35.59375 56 
Q 45.5625 56 51.78125 48.09375 
Q 58.015625 40.1875 58.015625 27.296875 
Q 58.015625 14.40625 51.78125 6.484375 
Q 45.5625 -1.421875 35.59375 -1.421875 
Q 29.59375 -1.421875 25.265625 0.953125 
Q 20.953125 3.328125 18.109375 8.203125 
z
M 48.6875 27.296875 
Q 48.6875 37.203125 44.609375 42.84375 
Q 40.53125 48.484375 33.40625 48.484375 
Q 26.265625 48.484375 22.1875 42.84375 
Q 18.109375 37.203125 18.109375 27.296875 
Q 18.109375 17.390625 22.1875 11.75 
Q 26.265625 6.109375 33.40625 6.109375 
Q 40.53125 6.109375 44.609375 11.75 
Q 48.6875 17.390625 48.6875 27.296875 
z
" id="DejaVuSans-112"/>
      <path d="M 18.3125 70.21875 
L 18.3125 54.6875 
L 36.8125 54.6875 
L 36.8125 47.703125 
L 18.3125 47.703125 
L 18.3125 18.015625 
Q 18.3125 11.328125 20.140625 9.421875 
Q 21.96875 7.515625 27.59375 7.515625 
L 36.8125 7.515625 
L 36.8125 0 
L 27.59375 0 
Q 17.1875 0 13.234375 3.875 
Q 9.28125 7.765625 9.28125 18.015625 
L 9.28125 47.703125 
L 2.6875 47.703125 
L 2.6875 54.6875 
L 9.28125 54.6875 
L 9.28125 70.21875 
z
" id="DejaVuSans-116"/>
      <path d="M 8.5 21.578125 
L 8.5 54.6875 
L 17.484375 54.6875 
L 17.484375 21.921875 
Q 17.484375 14.15625 20.5 10.265625 
Q 23.53125 6.390625 29.59375 6.390625 
Q 36.859375 6.390625 41.078125 11.03125 
Q 45.3125 15.671875 45.3125 23.6875 
L 45.3125 54.6875 
L 54.296875 54.6875 
L 54.296875 0 
L 45.3125 0 
L 45.3125 8.40625 
Q 42.046875 3.421875 37.71875 1 
Q 33.40625 -1.421875 27.6875 -1.421875 
Q 18.265625 -1.421875 13.375 4.4375 
Q 8.5 10.296875 8.5 21.578125 
z
M 31.109375 56 
z
" id="DejaVuSans-117"/>
      <path d="M 48.6875 27.296875 
Q 48.6875 37.203125 44.609375 42.84375 
Q 40.53125 48.484375 33.40625 48.484375 
Q 26.265625 48.484375 22.1875 42.84375 
Q 18.109375 37.203125 18.109375 27.296875 
Q 18.109375 17.390625 22.1875 11.75 
Q 26.265625 6.109375 33.40625 6.109375 
Q 40.53125 6.109375 44.609375 11.75 
Q 48.6875 17.390625 48.6875 27.296875 
z
M 18.109375 46.390625 
Q 20.953125 51.265625 25.265625 53.625 
Q 29.59375 56 35.59375 56 
Q 45.5625 56 51.78125 48.09375 
Q 58.015625 40.1875 58.015625 27.296875 
Q 58.015625 14.40625 51.78125 6.484375 
Q 45.5625 -1.421875 35.59375 -1.421875 
Q 29.59375 -1.421875 25.265625 0.953125 
Q 20.953125 3.328125 18.109375 8.203125 
L 18.109375 0 
L 9.078125 0 
L 9.078125 75.984375 
L 18.109375 75.984375 
z
" id="DejaVuSans-98"/>
      <path d="M 34.28125 27.484375 
Q 23.390625 27.484375 19.1875 25 
Q 14.984375 22.515625 14.984375 16.5 
Q 14.984375 11.71875 18.140625 8.90625 
Q 21.296875 6.109375 26.703125 6.109375 
Q 34.1875 6.109375 38.703125 11.40625 
Q 43.21875 16.703125 43.21875 25.484375 
L 43.21875 27.484375 
z
M 52.203125 31.203125 
L 52.203125 0 
L 43.21875 0 
L 43.21875 8.296875 
Q 40.140625 3.328125 35.546875 0.953125 
Q 30.953125 -1.421875 24.3125 -1.421875 
Q 15.921875 -1.421875 10.953125 3.296875 
Q 6 8.015625 6 15.921875 
Q 6 25.140625 12.171875 29.828125 
Q 18.359375 34.515625 30.609375 34.515625 
L 43.21875 34.515625 
L 43.21875 35.40625 
Q 43.21875 41.609375 39.140625 45 
Q 35.0625 48.390625 27.6875 48.390625 
Q 23 48.390625 18.546875 47.265625 
Q 14.109375 46.140625 10.015625 43.890625 
L 10.015625 52.203125 
Q 14.9375 54.109375 19.578125 55.046875 
Q 24.21875 56 28.609375 56 
Q 40.484375 56 46.34375 49.84375 
Q 52.203125 43.703125 52.203125 31.203125 
z
" id="DejaVuSans-97"/>
      <path d="M 2.984375 54.6875 
L 12.5 54.6875 
L 29.59375 8.796875 
L 46.6875 54.6875 
L 56.203125 54.6875 
L 35.6875 0 
L 23.484375 0 
z
" id="DejaVuSans-118"/>
     </defs>
     <g transform="translate(435.80625 297.838125)scale(0.12 -0.12)">
      <use xlink:href="#DejaVuSans-112"/>
      <use x="63.476562" xlink:href="#DejaVuSans-101"/>
      <use x="125" xlink:href="#DejaVuSans-114"/>
      <use x="166.113281" xlink:href="#DejaVuSans-116"/>
      <use x="205.322266" xlink:href="#DejaVuSans-117"/>
      <use x="268.701172" xlink:href="#DejaVuSans-114"/>
      <use x="309.814453" xlink:href="#DejaVuSans-98"/>
      <use x="373.291016" xlink:href="#DejaVuSans-97"/>
      <use x="434.570312" xlink:href="#DejaVuSans-116"/>
      <use x="473.779297" xlink:href="#DejaVuSans-105"/>
      <use x="501.5625" xlink:href="#DejaVuSans-118"/>
      <use x="560.742188" xlink:href="#DejaVuSans-101"/>
     </g>
    </g>
    <g id="line2d_68">
     <path d="M 402.20625 311.251875 
L 426.20625 311.251875 
" style="fill:none;stroke:#008000;stroke-dasharray:7.4,3.2;stroke-dashoffset:0;stroke-width:2;"/>
    </g>
    <g id="line2d_69"/>
    <g id="text_34">
     <!-- dimension 3 -->
     <defs>
      <path d="M 45.40625 46.390625 
L 45.40625 75.984375 
L 54.390625 75.984375 
L 54.390625 0 
L 45.40625 0 
L 45.40625 8.203125 
Q 42.578125 3.328125 38.25 0.953125 
Q 33.9375 -1.421875 27.875 -1.421875 
Q 17.96875 -1.421875 11.734375 6.484375 
Q 5.515625 14.40625 5.515625 27.296875 
Q 5.515625 40.1875 11.734375 48.09375 
Q 17.96875 56 27.875 56 
Q 33.9375 56 38.25 53.625 
Q 42.578125 51.265625 45.40625 46.390625 
z
M 14.796875 27.296875 
Q 14.796875 17.390625 18.875 11.75 
Q 22.953125 6.109375 30.078125 6.109375 
Q 37.203125 6.109375 41.296875 11.75 
Q 45.40625 17.390625 45.40625 27.296875 
Q 45.40625 37.203125 41.296875 42.84375 
Q 37.203125 48.484375 30.078125 48.484375 
Q 22.953125 48.484375 18.875 42.84375 
Q 14.796875 37.203125 14.796875 27.296875 
z
" id="DejaVuSans-100"/>
      <path d="M 52 44.1875 
Q 55.375 50.25 60.0625 53.125 
Q 64.75 56 71.09375 56 
Q 79.640625 56 84.28125 50.015625 
Q 88.921875 44.046875 88.921875 33.015625 
L 88.921875 0 
L 79.890625 0 
L 79.890625 32.71875 
Q 79.890625 40.578125 77.09375 44.375 
Q 74.3125 48.1875 68.609375 48.1875 
Q 61.625 48.1875 57.5625 43.546875 
Q 53.515625 38.921875 53.515625 30.90625 
L 53.515625 0 
L 44.484375 0 
L 44.484375 32.71875 
Q 44.484375 40.625 41.703125 44.40625 
Q 38.921875 48.1875 33.109375 48.1875 
Q 26.21875 48.1875 22.15625 43.53125 
Q 18.109375 38.875 18.109375 30.90625 
L 18.109375 0 
L 9.078125 0 
L 9.078125 54.6875 
L 18.109375 54.6875 
L 18.109375 46.1875 
Q 21.1875 51.21875 25.484375 53.609375 
Q 29.78125 56 35.6875 56 
Q 41.65625 56 45.828125 52.96875 
Q 50 49.953125 52 44.1875 
z
" id="DejaVuSans-109"/>
      <path d="M 44.28125 53.078125 
L 44.28125 44.578125 
Q 40.484375 46.53125 36.375 47.5 
Q 32.28125 48.484375 27.875 48.484375 
Q 21.1875 48.484375 17.84375 46.4375 
Q 14.5 44.390625 14.5 40.28125 
Q 14.5 37.15625 16.890625 35.375 
Q 19.28125 33.59375 26.515625 31.984375 
L 29.59375 31.296875 
Q 39.15625 29.25 43.1875 25.515625 
Q 47.21875 21.78125 47.21875 15.09375 
Q 47.21875 7.46875 41.1875 3.015625 
Q 35.15625 -1.421875 24.609375 -1.421875 
Q 20.21875 -1.421875 15.453125 -0.5625 
Q 10.6875 0.296875 5.421875 2 
L 5.421875 11.28125 
Q 10.40625 8.6875 15.234375 7.390625 
Q 20.0625 6.109375 24.8125 6.109375 
Q 31.15625 6.109375 34.5625 8.28125 
Q 37.984375 10.453125 37.984375 14.40625 
Q 37.984375 18.0625 35.515625 20.015625 
Q 33.0625 21.96875 24.703125 23.78125 
L 21.578125 24.515625 
Q 13.234375 26.265625 9.515625 29.90625 
Q 5.8125 33.546875 5.8125 39.890625 
Q 5.8125 47.609375 11.28125 51.796875 
Q 16.75 56 26.8125 56 
Q 31.78125 56 36.171875 55.265625 
Q 40.578125 54.546875 44.28125 53.078125 
z
" id="DejaVuSans-115"/>
     </defs>
     <g transform="translate(435.80625 315.451875)scale(0.12 -0.12)">
      <use xlink:href="#DejaVuSans-100"/>
      <use x="63.476562" xlink:href="#DejaVuSans-105"/>
      <use x="91.259766" xlink:href="#DejaVuSans-109"/>
      <use x="188.671875" xlink:href="#DejaVuSans-101"/>
      <use x="250.195312" xlink:href="#DejaVuSans-110"/>
      <use x="313.574219" xlink:href="#DejaVuSans-115"/>
      <use x="365.673828" xlink:href="#DejaVuSans-105"/>
      <use x="393.457031" xlink:href="#DejaVuSans-111"/>
      <use x="454.638672" xlink:href="#DejaVuSans-110"/>
      <use x="518.017578" xlink:href="#DejaVuSans-32"/>
      <use x="549.804688" xlink:href="#DejaVuSans-51"/>
     </g>
    </g>
    <g id="line2d_70">
     <path d="M 402.20625 328.865625 
L 426.20625 328.865625 
" style="fill:none;stroke:#ff0000;stroke-dasharray:7.4,3.2;stroke-dashoffset:0;stroke-width:2;"/>
    </g>
    <g id="line2d_71"/>
    <g id="text_35">
     <!-- dimension 4 -->
     <g transform="translate(435.80625 333.065625)scale(0.12 -0.12)">
      <use xlink:href="#DejaVuSans-100"/>
      <use x="63.476562" xlink:href="#DejaVuSans-105"/>
      <use x="91.259766" xlink:href="#DejaVuSans-109"/>
      <use x="188.671875" xlink:href="#DejaVuSans-101"/>
      <use x="250.195312" xlink:href="#DejaVuSans-110"/>
      <use x="313.574219" xlink:href="#DejaVuSans-115"/>
      <use x="365.673828" xlink:href="#DejaVuSans-105"/>
      <use x="393.457031" xlink:href="#DejaVuSans-111"/>
      <use x="454.638672" xlink:href="#DejaVuSans-110"/>
      <use x="518.017578" xlink:href="#DejaVuSans-32"/>
      <use x="549.804688" xlink:href="#DejaVuSans-52"/>
     </g>
    </g>
    <g id="line2d_72">
     <path d="M 402.20625 346.479375 
L 426.20625 346.479375 
" style="fill:none;stroke:#800080;stroke-dasharray:7.4,3.2;stroke-dashoffset:0;stroke-width:2;"/>
    </g>
    <g id="line2d_73"/>
    <g id="text_36">
     <!-- dimension 5 -->
     <g transform="translate(435.80625 350.679375)scale(0.12 -0.12)">
      <use xlink:href="#DejaVuSans-100"/>
      <use x="63.476562" xlink:href="#DejaVuSans-105"/>
      <use x="91.259766" xlink:href="#DejaVuSans-109"/>
      <use x="188.671875" xlink:href="#DejaVuSans-101"/>
      <use x="250.195312" xlink:href="#DejaVuSans-110"/>
      <use x="313.574219" xlink:href="#DejaVuSans-115"/>
      <use x="365.673828" xlink:href="#DejaVuSans-105"/>
      <use x="393.457031" xlink:href="#DejaVuSans-111"/>
      <use x="454.638672" xlink:href="#DejaVuSans-110"/>
      <use x="518.017578" xlink:href="#DejaVuSans-32"/>
      <use x="549.804688" xlink:href="#DejaVuSans-53"/>
     </g>
    </g>
    <g id="line2d_74">
     <path d="M 402.20625 364.093125 
L 426.20625 364.093125 
" style="fill:none;stroke:#ffa500;stroke-dasharray:7.4,3.2;stroke-dashoffset:0;stroke-width:2;"/>
    </g>
    <g id="line2d_75"/>
    <g id="text_37">
     <!-- dimension 6 -->
     <g transform="translate(435.80625 368.293125)scale(0.12 -0.12)">
      <use xlink:href="#DejaVuSans-100"/>
      <use x="63.476562" xlink:href="#DejaVuSans-105"/>
      <use x="91.259766" xlink:href="#DejaVuSans-109"/>
      <use x="188.671875" xlink:href="#DejaVuSans-101"/>
      <use x="250.195312" xlink:href="#DejaVuSans-110"/>
      <use x="313.574219" xlink:href="#DejaVuSans-115"/>
      <use x="365.673828" xlink:href="#DejaVuSans-105"/>
      <use x="393.457031" xlink:href="#DejaVuSans-111"/>
      <use x="454.638672" xlink:href="#DejaVuSans-110"/>
      <use x="518.017578" xlink:href="#DejaVuSans-32"/>
      <use x="549.804688" xlink:href="#DejaVuSans-54"/>
     </g>
    </g>
    <g id="line2d_76">
     <path d="M 402.20625 381.706875 
L 426.20625 381.706875 
" style="fill:none;stroke:#000000;stroke-dasharray:7.4,3.2;stroke-dashoffset:0;stroke-width:2;"/>
    </g>
    <g id="line2d_77"/>
    <g id="text_38">
     <!-- dimension 7 -->
     <g transform="translate(435.80625 385.906875)scale(0.12 -0.12)">
      <use xlink:href="#DejaVuSans-100"/>
      <use x="63.476562" xlink:href="#DejaVuSans-105"/>
      <use x="91.259766" xlink:href="#DejaVuSans-109"/>
      <use x="188.671875" xlink:href="#DejaVuSans-101"/>
      <use x="250.195312" xlink:href="#DejaVuSans-110"/>
      <use x="313.574219" xlink:href="#DejaVuSans-115"/>
      <use x="365.673828" xlink:href="#DejaVuSans-105"/>
      <use x="393.457031" xlink:href="#DejaVuSans-111"/>
      <use x="454.638672" xlink:href="#DejaVuSans-110"/>
      <use x="518.017578" xlink:href="#DejaVuSans-32"/>
      <use x="549.804688" xlink:href="#DejaVuSans-55"/>
     </g>
    </g>
   </g>
  </g>
 </g>
 <defs>
  <clipPath id="p7a78430a5c">
   <rect height="218.68" width="453.382" x="67.898" y="13.32"/>
  </clipPath>
  <clipPath id="pc890cc9637">
   <rect height="218.68" width="453.382" x="67.898" y="277.92"/>
  </clipPath>
 </defs>
</svg>
